<svg width="254" height="254" viewBox="0 0 254 254" fill="none" xmlns="http://www.w3.org/2000/svg">
<path d="M234.23 151.864V178.349C234.23 180.651 233.315 182.859 231.688 184.487C230.06 186.115 227.852 187.029 225.55 187.029H130.583C128.282 187.028 126.075 186.112 124.449 184.485C122.822 182.857 121.909 180.65 121.909 178.349V155.967L110.081 143.546L225.525 143.19C226.666 143.186 227.798 143.407 228.854 143.841C229.91 144.275 230.87 144.914 231.678 145.72C232.487 146.525 233.129 147.483 233.567 148.538C234.005 149.592 234.23 150.722 234.23 151.864Z" fill="#F5F5F5"/>
<path d="M135.903 159.233L222.084 158.834L222.071 156.186L135.897 156.586L135.903 159.233Z" fill="#E6E6E6"/>
<path d="M135.903 167.945L222.084 167.552L222.071 164.904L135.897 165.297L135.903 167.945Z" fill="#E6E6E6"/>
<path d="M169.984 173.632L135.887 173.798L135.9 176.446L169.997 176.279L169.984 173.632Z" fill="#E6E6E6"/>
<path d="M65.9229 0H121.934C122.59 0 123.239 0.129223 123.846 0.380293C124.452 0.631363 125.002 0.999361 125.466 1.46328C125.93 1.92719 126.298 2.47794 126.549 3.08408C126.8 3.69021 126.93 4.33987 126.93 4.99595V32.4174C126.93 33.7424 126.403 35.0132 125.466 35.9501C124.529 36.887 123.259 37.4134 121.934 37.4134H74.4035C73.0785 37.4134 71.8077 36.887 70.8708 35.9501C69.9339 35.0132 69.4075 33.7424 69.4075 32.4174V3.45969L65.9229 0Z" fill="#F5F5F5"/>
<path d="M136.291 49.872V59.714C136.291 60.3765 136.554 61.0119 137.022 61.4804C137.491 61.9488 138.126 62.212 138.788 62.212H193.781C194.444 62.212 195.079 61.9488 195.548 61.4804C196.016 61.0119 196.279 60.3765 196.279 59.714V54.3372L202.593 47.5801L138.795 47.3741C138.466 47.3732 138.141 47.4372 137.837 47.5624C137.533 47.6876 137.257 47.8714 137.024 48.1035C136.792 48.3355 136.607 48.6112 136.481 48.9147C136.355 49.2181 136.291 49.5435 136.291 49.872Z" fill="#F0F0F0"/>
<path d="M99.2208 30.2941V47.8611C99.2216 48.617 99.0734 49.3655 98.7847 50.0641C98.4961 50.7626 98.0725 51.3974 97.5384 51.9321C97.0042 52.4669 96.3699 52.8911 95.6716 53.1805C94.9734 53.47 94.225 53.6189 93.4692 53.6189H30.4578C29.702 53.6189 28.9536 53.47 28.2553 53.1805C27.5571 52.8911 26.9228 52.4669 26.3886 51.9321C25.8545 51.3974 25.4309 50.7626 25.1423 50.0641C24.8536 49.3655 24.7054 48.617 24.7062 47.8611V33.0232L16.8813 24.7799L93.4504 24.5425C94.2073 24.5401 94.9573 24.687 95.6572 24.975C96.3572 25.2629 96.9935 25.6862 97.5295 26.2205C98.0656 26.7548 98.4909 27.3897 98.7812 28.0888C99.0714 28.7878 99.2208 29.5372 99.2208 30.2941V30.2941Z" fill="#E0E0E0"/>
<path d="M34.0114 35.1838L91.165 34.9215L91.1587 33.1667L34.0051 33.4289L34.0114 35.1838Z" fill="#F0F0F0"/>
<path d="M34.0114 40.9667L91.165 40.6982L91.1587 38.9434L34.0051 39.2056L34.0114 40.9667Z" fill="#F0F0F0"/>
<path d="M56.6095 44.736L33.9968 44.8465L34.0054 46.6013L56.618 46.4908L56.6095 44.736Z" fill="#F0F0F0"/>
<path d="M6.3838 88.2657V114.757C6.3838 115.896 6.60837 117.025 7.04468 118.078C7.48099 119.13 8.12049 120.087 8.92662 120.893C9.73276 121.698 10.6897 122.337 11.7429 122.772C12.796 123.208 13.9246 123.432 15.0643 123.431H110.031C111.171 123.432 112.299 123.208 113.352 122.772C114.405 122.337 115.362 121.698 116.169 120.893C116.975 120.087 117.614 119.13 118.05 118.078C118.487 117.025 118.711 115.896 118.711 114.757V92.3749L130.533 79.9537L15.0892 79.5728C13.9461 79.5695 12.8137 79.792 11.7568 80.2276C10.6999 80.6631 9.73951 81.3031 8.93064 82.1108C8.12178 82.9185 7.48041 83.878 7.04335 84.9342C6.60629 85.9905 6.38215 87.1226 6.3838 88.2657V88.2657Z" fill="#F0F0F0"/>
<path d="M104.71 95.6349L18.53 95.2415L18.5425 92.5936L104.716 92.9871L104.71 95.6349Z" fill="#E6E6E6"/>
<path d="M104.71 104.353L18.53 103.953L18.5425 101.305L104.716 101.705L104.71 104.353Z" fill="#E6E6E6"/>
<path d="M70.6155 110.022L70.6025 112.67L104.699 112.837L104.712 110.189L70.6155 110.022Z" fill="#E6E6E6"/>
<path d="M192.819 25.8497C195.432 20.0401 192.841 13.2121 187.032 10.5987C181.222 7.98536 174.394 10.5764 171.781 16.3859C169.168 22.1954 171.759 29.0235 177.568 31.6369C183.378 34.2502 190.206 31.6592 192.819 25.8497Z" fill="#F5F5F5"/>
<path d="M178.319 18.2104C178.75 18.1729 179.15 18.6538 179.2 19.2845C179.25 19.9153 178.944 20.4586 178.507 20.496C178.069 20.5335 177.67 20.0464 177.62 19.4157C177.57 18.7849 177.882 18.2416 178.319 18.2104Z" fill="#E0E0E0"/>
<path d="M179.331 15.2875C178.636 15.3734 177.949 15.5133 177.276 15.706C176.639 15.9972 176.025 16.3375 175.44 16.7239C175.864 16.1156 176.464 15.6519 177.16 15.3951C177.856 15.1383 178.613 15.1007 179.331 15.2875Z" fill="#E0E0E0"/>
<path d="M185.651 18.0603C185.207 18.0603 184.832 18.5349 184.807 19.1719C184.782 19.8089 185.113 20.3272 185.557 20.3459C186 20.3647 186.369 19.8651 186.394 19.2343C186.419 18.6036 186.088 18.0728 185.651 18.0603Z" fill="#E0E0E0"/>
<path d="M184.514 15.1815C185.22 14.9629 185.976 14.9654 186.68 15.1886C187.384 15.4119 188.004 15.8452 188.455 16.4305C187.857 16.0648 187.231 15.7493 186.581 15.4875C185.901 15.334 185.21 15.2318 184.514 15.1815V15.1815Z" fill="#E0E0E0"/>
<path d="M187.986 20.9955C187.991 21.2065 187.964 21.4171 187.905 21.6199C187.758 22.1748 187.522 22.7021 187.206 23.1812C186.753 23.9022 186.156 24.521 185.451 24.9985C184.59 25.6081 183.574 25.961 182.52 26.0162C181.467 26.0715 180.419 25.8269 179.499 25.3107C178.747 24.9068 178.086 24.3519 177.557 23.6808C177.204 23.2329 176.926 22.731 176.733 22.1945C176.646 21.9974 176.597 21.7854 176.589 21.57C176.889 22.2644 177.278 22.9172 177.745 23.5122C178.262 24.1343 178.899 24.6461 179.618 25.0172C180.491 25.4902 181.478 25.7131 182.47 25.6613C183.461 25.6095 184.419 25.2851 185.239 24.7237C185.922 24.2801 186.51 23.7047 186.968 23.0313C187.392 22.3985 187.735 21.7144 187.986 20.9955V20.9955Z" fill="#E0E0E0"/>
<path d="M23.8069 150.765H25.4618L29.1088 145.907V142.715C29.1088 142.715 31.688 142.565 31.3882 146.743C31.0885 150.921 31.3882 149.866 31.3882 149.866C31.3882 149.866 36.865 149.866 37.3209 150.34C37.6519 150.671 37.8018 155.88 37.858 158.702C37.8853 159.396 37.6767 160.079 37.2662 160.639C36.8556 161.2 36.2674 161.604 35.5973 161.787C35.3926 161.836 35.1831 161.861 34.9728 161.862C33.6739 161.831 26.7108 160.757 26.7108 160.757H23.8069V150.765Z" fill="#F0F0F0"/>
<path d="M19.0298 149.872L20.054 160.794H22.9141V150.091L19.0298 149.872Z" fill="#F0F0F0"/>
<path d="M253.402 55.7922C253.008 55.3704 252.465 55.1192 251.889 55.0924C251.312 55.0655 250.748 55.2651 250.317 55.6486C249.889 55.9914 249.541 56.4241 249.298 56.9162C249.055 57.4083 248.923 57.9477 248.912 58.4962C248.81 57.947 248.59 57.4266 248.267 56.9714C247.943 56.5162 247.524 56.1372 247.038 55.8609C246.556 55.5357 245.966 55.4111 245.394 55.5137C244.821 55.6163 244.311 55.938 243.972 56.4104C243.606 57.0587 243.495 57.8202 243.66 58.5462C243.768 59.2787 244.075 59.9676 244.547 60.5383C246.277 62.3744 247.17 62.6679 249.312 63.9106C251.26 62.3993 251.891 62.0371 253.352 59.9576C253.746 59.3298 253.962 58.6066 253.977 57.8655C254.046 57.1273 253.842 56.3892 253.402 55.7922V55.7922Z" fill="#F0F0F0"/>
<path d="M150.498 224.287L85.5007 223.981C83.6418 223.973 81.8026 223.6 80.0882 222.882C78.3737 222.163 76.8176 221.114 75.5086 219.794C74.1997 218.474 73.1637 216.909 72.4597 215.189C71.7558 213.468 71.3977 211.626 71.4059 209.767L72.0991 46.8183C72.1206 43.0663 73.63 39.476 76.296 36.8358C78.962 34.1956 82.5667 32.7211 86.3188 32.736L151.316 33.0358C155.07 33.054 158.664 34.5619 161.307 37.2283C163.95 39.8946 165.426 43.5012 165.411 47.2555L164.724 210.186C164.706 213.942 163.197 217.537 160.53 220.181C157.862 222.825 154.254 224.302 150.498 224.287Z" fill="#263238"/>
<path d="M151.222 38.6438L138.62 38.5876C138.209 38.5941 137.803 38.6817 137.426 38.8454C137.049 39.0092 136.708 39.2458 136.422 39.5417C136.137 39.8377 135.913 40.1871 135.763 40.5699C135.612 40.9527 135.539 41.3614 135.548 41.7725V44.0581C135.556 44.4692 135.483 44.8779 135.333 45.2607C135.183 45.6435 134.959 45.993 134.673 46.2889C134.388 46.5848 134.046 46.8214 133.669 46.9852C133.292 47.1489 132.886 47.2366 132.475 47.2431L107.895 47.1306C107.483 47.1209 107.078 47.0299 106.701 46.8628C106.325 46.6956 105.985 46.4557 105.702 46.1567C105.419 45.8578 105.198 45.5058 105.051 45.121C104.904 44.7362 104.835 44.3261 104.848 43.9145V41.6289C104.86 41.2172 104.791 40.8072 104.644 40.4224C104.498 40.0376 104.276 39.6855 103.993 39.3866C103.71 39.0877 103.37 38.8477 102.994 38.6806C102.618 38.5134 102.212 38.4224 101.8 38.4127H97.3662L86.3564 38.3565C85.0541 38.3508 83.7634 38.6016 82.558 39.0946C81.3526 39.5877 80.2561 40.3134 79.3312 41.2302C78.4063 42.147 77.671 43.237 77.1673 44.438C76.6636 45.639 76.4014 46.9274 76.3957 48.2297L75.7213 207.276C75.7113 209.905 76.7455 212.431 78.5968 214.299C80.448 216.167 82.9649 217.223 85.5945 217.236L150.461 217.536C151.763 217.542 153.054 217.291 154.259 216.798C155.464 216.305 156.561 215.579 157.486 214.662C158.411 213.746 159.146 212.656 159.65 211.455C160.153 210.254 160.416 208.965 160.421 207.663L161.096 48.6169C161.102 47.3138 160.852 46.0221 160.359 44.8157C159.867 43.6092 159.141 42.5116 158.225 41.5855C157.308 40.6594 156.218 39.923 155.016 39.4182C153.815 38.9135 152.526 38.6503 151.222 38.6438Z" fill="white"/>
<path d="M115.57 197.452C115.57 197.722 115.49 197.985 115.341 198.209C115.191 198.433 114.979 198.607 114.73 198.71C114.481 198.813 114.207 198.84 113.943 198.788C113.679 198.735 113.437 198.605 113.246 198.415C113.056 198.225 112.926 197.982 112.874 197.718C112.821 197.454 112.848 197.18 112.951 196.931C113.054 196.683 113.229 196.47 113.452 196.32C113.676 196.171 113.94 196.091 114.209 196.091C114.569 196.093 114.915 196.236 115.17 196.491C115.425 196.746 115.569 197.092 115.57 197.452V197.452Z" fill="#455A64"/>
<path d="M120.741 197.452C120.741 197.722 120.661 197.985 120.511 198.209C120.362 198.433 120.149 198.607 119.9 198.71C119.652 198.813 119.378 198.84 119.114 198.788C118.85 198.735 118.607 198.605 118.417 198.415C118.226 198.225 118.097 197.982 118.044 197.718C117.992 197.454 118.019 197.18 118.122 196.931C118.225 196.683 118.399 196.47 118.623 196.32C118.847 196.171 119.11 196.091 119.379 196.091C119.74 196.093 120.085 196.236 120.34 196.491C120.595 196.746 120.739 197.092 120.741 197.452V197.452Z" fill="#455A64"/>
<path d="M125.912 197.452C125.912 197.722 125.832 197.985 125.683 198.209C125.533 198.433 125.32 198.607 125.072 198.71C124.823 198.813 124.549 198.84 124.285 198.788C124.021 198.735 123.778 198.605 123.588 198.415C123.398 198.225 123.268 197.982 123.215 197.718C123.163 197.454 123.19 197.18 123.293 196.931C123.396 196.683 123.57 196.47 123.794 196.32C124.018 196.171 124.281 196.091 124.551 196.091C124.911 196.093 125.256 196.236 125.511 196.491C125.766 196.746 125.91 197.092 125.912 197.452V197.452Z" fill="#455A64"/>
<path d="M88.4797 83.0138C88.4797 83.0138 88.4797 82.9014 88.4797 82.6704C88.5274 81.7643 88.8474 80.8937 89.3977 80.1724C89.8535 79.5515 90.4566 79.0536 91.1526 78.7236C92.0402 78.329 93.014 78.1678 93.9815 78.2552H105.797L155.756 78.3551H156.125L155.869 78.6236L149.468 85.3557L149.511 85.2495V96.3967C149.556 97.1396 149.502 97.8852 149.349 98.6137C149.157 99.3435 148.796 100.018 148.294 100.581C147.801 101.143 147.186 101.583 146.495 101.867C145.808 102.138 145.072 102.263 144.334 102.236H123.951L96.6543 102.18H93.7817C92.8623 102.25 91.9401 102.084 91.1026 101.699C90.3409 101.331 89.6902 100.767 89.2164 100.067C88.7426 99.3658 88.4626 98.5521 88.4048 97.7082C88.4048 94.5857 88.4048 91.9566 88.4048 89.7771C88.4048 87.5976 88.4048 85.924 88.436 84.7811C88.436 84.2129 88.436 83.782 88.436 83.476C88.436 83.17 88.436 83.0326 88.436 83.0326C88.436 83.0326 88.436 83.1824 88.436 83.476C88.436 83.7695 88.436 84.2129 88.436 84.7811C88.436 85.9365 88.436 87.6226 88.436 89.7771C88.436 91.9316 88.436 94.6169 88.4797 97.6957C88.5396 98.5054 88.8126 99.2849 89.2711 99.955C89.7295 100.625 90.3571 101.162 91.0901 101.511C91.8989 101.881 92.7894 102.036 93.6755 101.961H96.6543L123.982 101.93H140.119H144.353C145.048 101.958 145.742 101.841 146.389 101.586C147.035 101.32 147.612 100.91 148.075 100.387C148.541 99.8612 148.875 99.2319 149.049 98.5512C149.197 97.8495 149.249 97.1312 149.205 96.4155V85.1933L149.249 85.1496L155.656 78.4176L155.775 78.6861L105.816 78.4738L97.4225 78.43H93.994C93.0482 78.3369 92.0942 78.4852 91.2213 78.861C90.5362 79.1772 89.9399 79.6578 89.4852 80.2598C89.1485 80.6991 88.8907 81.1936 88.7233 81.7211C88.6023 82.1436 88.5208 82.5763 88.4797 83.0138V83.0138Z" fill="#455A64"/>
<path d="M141.755 87.0106L95.0618 86.792L95.068 85.3557L141.755 85.5743V87.0106Z" fill="#455A64"/>
<path d="M141.755 91.7321L95.0618 91.5135L95.068 90.0771L141.755 90.2957V91.7321Z" fill="#455A64"/>
<path d="M123.277 94.802L123.27 96.2383L141.742 96.3286L141.749 94.8923L123.277 94.802Z" fill="#455A64"/>
<path d="M151.959 114.638V129.002C151.959 130.248 151.465 131.443 150.584 132.325C149.704 133.206 148.509 133.702 147.263 133.704H95.8049C94.5577 133.704 93.3617 133.209 92.4798 132.327C91.5979 131.445 91.1025 130.249 91.1025 129.002V116.868L84.7014 110.136L147.238 109.942C147.857 109.939 148.47 110.058 149.043 110.292C149.616 110.527 150.136 110.872 150.575 111.309C151.014 111.745 151.362 112.264 151.599 112.835C151.837 113.407 151.959 114.019 151.959 114.638V114.638Z" fill="#EE3025"/>
<path d="M98.6901 118.635L145.383 118.416L145.377 116.98L98.6838 117.199L98.6901 118.635Z" fill="white"/>
<path d="M98.6901 123.356L145.383 123.138L145.377 121.708L98.6838 121.92L98.6901 123.356Z" fill="white"/>
<path d="M117.147 126.435L98.6743 126.526L98.6813 127.962L117.154 127.872L117.147 126.435Z" fill="white"/>
<path d="M123.951 59.6641C124.404 59.4666 124.788 59.1393 125.054 58.7236C125.321 58.3079 125.459 57.8224 125.45 57.3285C125.466 57.0079 125.417 56.6873 125.306 56.3861C125.195 56.085 125.023 55.8097 124.802 55.5769C124.581 55.3441 124.315 55.1588 124.02 55.0321C123.725 54.9055 123.407 54.8401 123.086 54.8401C122.765 54.8401 122.447 54.9055 122.152 55.0321C121.857 55.1588 121.591 55.3441 121.37 55.5769C121.149 55.8097 120.977 56.085 120.866 56.3861C120.755 56.6873 120.706 57.0079 120.722 57.3285C120.71 57.8263 120.847 58.3163 121.115 58.7358C121.383 59.1553 121.77 59.4851 122.227 59.6828C118.587 60.2324 118.749 64.1917 118.749 64.1917L127.361 64.2292C127.361 64.2292 127.56 60.2137 123.951 59.6641Z" fill="#EE3025"/>
<path opacity="0.5" d="M123.951 59.6641C124.404 59.4666 124.788 59.1393 125.054 58.7236C125.321 58.3079 125.459 57.8224 125.45 57.3285C125.466 57.0079 125.417 56.6873 125.306 56.3861C125.195 56.085 125.023 55.8097 124.802 55.5769C124.581 55.3441 124.315 55.1588 124.02 55.0321C123.725 54.9055 123.407 54.8401 123.086 54.8401C122.765 54.8401 122.447 54.9055 122.152 55.0321C121.857 55.1588 121.591 55.3441 121.37 55.5769C121.149 55.8097 120.977 56.085 120.866 56.3861C120.755 56.6873 120.706 57.0079 120.722 57.3285C120.71 57.8263 120.847 58.3163 121.115 58.7358C121.383 59.1553 121.77 59.4851 122.227 59.6828C118.587 60.2324 118.749 64.1917 118.749 64.1917L127.361 64.2292C127.361 64.2292 127.56 60.2137 123.951 59.6641Z" fill="white"/>
<path d="M119.223 59.6643C119.674 59.4637 120.057 59.1359 120.324 58.721C120.592 58.3061 120.732 57.8222 120.728 57.3287C120.752 57.0034 120.708 56.6767 120.6 56.3691C120.492 56.0614 120.321 55.7794 120.099 55.5406C119.877 55.3017 119.608 55.1113 119.309 54.981C119.01 54.8508 118.688 54.7835 118.362 54.7835C118.035 54.7835 117.713 54.8508 117.414 54.981C117.115 55.1113 116.846 55.3017 116.624 55.5406C116.402 55.7794 116.231 56.0614 116.123 56.3691C116.015 56.6767 115.971 57.0034 115.995 57.3287C115.982 57.8264 116.119 58.3165 116.387 58.736C116.655 59.1554 117.043 59.4852 117.5 59.683C113.859 60.2325 114.021 64.1918 114.021 64.1918L122.633 64.2293C122.633 64.2293 122.833 60.2138 119.223 59.6643Z" fill="#EE3025"/>
<path d="M132.392 65.9784L109.242 65.8733L109.229 68.746L132.379 68.851L132.392 65.9784Z" fill="#EE3025"/>
<path opacity="0.3" d="M132.392 65.9784L109.242 65.8733L109.229 68.746L132.379 68.851L132.392 65.9784Z" fill="white"/>
<path d="M89.56 147.343C89.5489 147.231 89.5489 147.118 89.56 147.006C89.5977 146.669 89.7063 146.343 89.8785 146.05C90.1648 145.566 90.6042 145.19 91.1275 144.983C91.851 144.785 92.604 144.72 93.3507 144.789H107.67L155.887 144.889H156.256L155.981 145.145L149.674 151.914L149.717 151.802V156.33C149.717 156.667 149.717 156.954 149.717 157.329C149.692 157.855 149.509 158.362 149.193 158.784C148.877 159.206 148.442 159.523 147.944 159.696C147.616 159.807 147.272 159.858 146.926 159.846H140.2H125.643L101.026 159.796H92.6013C92.24 159.815 91.8776 159.794 91.521 159.733C91.0181 159.624 90.5593 159.367 90.2033 158.995C89.8473 158.624 89.6103 158.154 89.5226 157.647C89.4857 157.339 89.4731 157.027 89.4851 156.717C89.4851 155.524 89.4851 154.437 89.4851 153.457C89.4851 151.502 89.4851 149.985 89.5163 148.936C89.5163 148.43 89.5163 148.043 89.5163 147.762C89.5163 147.481 89.5163 147.362 89.5163 147.362C89.5163 147.362 89.5163 147.499 89.5163 147.762C89.5163 148.024 89.5163 148.43 89.5163 148.936C89.5163 149.985 89.5163 151.502 89.5476 153.457C89.5476 154.437 89.5476 155.524 89.5476 156.717C89.537 157.017 89.5516 157.318 89.5913 157.616C89.6734 158.09 89.8959 158.529 90.2298 158.875C90.5638 159.221 90.994 159.459 91.4648 159.558C91.8098 159.61 92.1592 159.627 92.5077 159.608H96.0298H101.026L125.668 159.571H146.945C147.252 159.582 147.559 159.538 147.85 159.44C148.436 159.234 148.916 158.805 149.187 158.247C149.32 157.969 149.397 157.668 149.411 157.36C149.411 157.048 149.411 156.704 149.411 156.38V151.79L149.455 151.746L155.775 144.989L155.887 145.257L107.677 145.051L93.357 144.958C92.6246 144.877 91.8836 144.932 91.1712 145.12C90.7669 145.28 90.4114 145.543 90.1398 145.882C89.8681 146.222 89.6898 146.626 89.6225 147.056C89.6067 147.153 89.5859 147.249 89.56 147.343V147.343Z" fill="#455A64"/>
<path d="M143.847 151.127L97.1538 150.915L97.1601 149.479L143.853 149.697L143.847 151.127Z" fill="#455A64"/>
<path d="M124.909 154.218L124.902 155.655L143.849 155.747L143.856 154.311L124.909 154.218Z" fill="#455A64"/>
<path d="M150.317 172.96V182.795C150.317 183.458 150.054 184.093 149.585 184.562C149.117 185.03 148.482 185.293 147.819 185.293H92.8262C92.1637 185.293 91.5284 185.03 91.0599 184.562C90.5915 184.093 90.3283 183.458 90.3283 182.795V177.419L84.0146 170.661L147.819 170.462C148.482 170.462 149.117 170.725 149.585 171.193C150.054 171.662 150.317 172.297 150.317 172.96Z" fill="#EE3025"/>
<path d="M96.036 176.744L142.729 176.532L142.723 175.095L96.0298 175.314L96.036 176.744Z" fill="white"/>
<path d="M96.036 181.366L142.729 181.147L142.723 179.717L96.0298 179.929L96.036 181.366Z" fill="white"/>
<path d="M225.581 55.0492C229.626 55.0492 232.906 51.7695 232.906 47.7239C232.906 43.6782 229.626 40.3986 225.581 40.3986C221.535 40.3986 218.255 43.6782 218.255 47.7239C218.255 51.7695 221.535 55.0492 225.581 55.0492Z" fill="#EE3025"/>
<path opacity="0.5" d="M225.581 55.0492C229.626 55.0492 232.906 51.7695 232.906 47.7239C232.906 43.6782 229.626 40.3986 225.581 40.3986C221.535 40.3986 218.255 43.6782 218.255 47.7239C218.255 51.7695 221.535 55.0492 225.581 55.0492Z" fill="white"/>
<path d="M223.151 45.6255C223.426 45.6255 223.676 45.919 223.701 46.3187C223.726 46.7184 223.52 47.0618 223.239 47.0743C222.958 47.0868 222.714 46.7808 222.689 46.3811C222.664 45.9814 222.87 45.638 223.151 45.6255Z" fill="#263238"/>
<path d="M223.832 43.7833C223.832 43.8894 223.208 43.8582 222.583 44.0955C221.959 44.3328 221.453 44.72 221.378 44.6451C221.303 44.5701 221.684 44.0206 222.458 43.7458C223.233 43.471 223.863 43.6896 223.832 43.7833Z" fill="#263238"/>
<path d="M229.14 46.7683C229.059 46.8308 228.666 46.4061 228.035 46.3437C227.404 46.2812 226.93 46.5997 226.867 46.5248C226.805 46.4498 226.917 46.3437 227.123 46.2C227.408 46.0213 227.744 45.9422 228.079 45.9752C228.412 46.0115 228.723 46.1614 228.959 46.3999C229.134 46.5872 229.178 46.7371 229.14 46.7683Z" fill="#263238"/>
<path d="M229.771 45.5443C229.715 45.6317 229.147 45.3257 228.328 45.3007C227.51 45.2757 226.917 45.5255 226.867 45.4256C227.056 45.2316 227.288 45.0856 227.544 44.9998C227.801 44.9139 228.074 44.8908 228.341 44.9323C229.253 44.9635 229.834 45.4756 229.771 45.5443Z" fill="#263238"/>
<path d="M229.253 47.5801C229.256 48.0864 229.094 48.58 228.791 48.9852C228.471 49.5195 228.023 49.9648 227.487 50.2802C226.95 50.5957 226.343 50.7711 225.721 50.7904C225.099 50.8097 224.482 50.6722 223.927 50.3906C223.372 50.109 222.897 49.6923 222.546 49.1788C222.213 48.7962 222.022 48.3115 222.002 47.805C222.217 48.2413 222.468 48.6591 222.752 49.0539C223.1 49.4995 223.548 49.8567 224.06 50.0965C224.572 50.3364 225.133 50.4522 225.698 50.4346C226.264 50.417 226.817 50.2664 227.313 49.995C227.809 49.7237 228.234 49.3392 228.553 48.8728C228.816 48.4588 229.05 48.0269 229.253 47.5801V47.5801Z" fill="#263238"/>
<path d="M20.6034 177.3C20.5408 179.336 19.8757 181.309 18.6923 182.967C17.509 184.626 15.8604 185.897 13.955 186.619C12.0496 187.341 9.97297 187.481 7.98757 187.023C6.00217 186.565 4.19714 185.529 2.80067 184.045C1.4042 182.561 0.478968 180.697 0.141942 178.687C-0.195085 176.678 0.0712218 174.614 0.907197 172.755C1.74317 170.897 3.11128 169.329 4.83859 168.248C6.5659 167.167 8.57486 166.623 10.6115 166.683C11.9649 166.724 13.297 167.031 14.5317 167.586C15.7665 168.142 16.8797 168.935 17.8076 169.921C18.7356 170.907 19.4601 172.066 19.9398 173.332C20.4195 174.598 20.645 175.946 20.6034 177.3V177.3Z" fill="#EE3025"/>
<path opacity="0.5" d="M20.6034 177.3C20.5408 179.336 19.8757 181.309 18.6923 182.967C17.509 184.626 15.8604 185.897 13.955 186.619C12.0496 187.341 9.97297 187.481 7.98757 187.023C6.00217 186.565 4.19714 185.529 2.80067 184.045C1.4042 182.561 0.478968 180.697 0.141942 178.687C-0.195085 176.678 0.0712218 174.614 0.907197 172.755C1.74317 170.897 3.11128 169.329 4.83859 168.248C6.5659 167.167 8.57486 166.623 10.6115 166.683C11.9649 166.724 13.297 167.031 14.5317 167.586C15.7665 168.142 16.8797 168.935 17.8076 169.921C18.7356 170.907 19.4601 172.066 19.9398 173.332C20.4195 174.598 20.645 175.946 20.6034 177.3V177.3Z" fill="white"/>
<path d="M8.27584 174.152C8.09365 173.915 7.82593 173.758 7.52967 173.715C7.23342 173.671 6.93202 173.746 6.68962 173.921C6.45508 174.079 6.25729 174.286 6.10967 174.528C5.96206 174.769 5.86806 175.039 5.83407 175.32C5.80785 175.034 5.72073 174.756 5.57856 174.507C5.43639 174.257 5.24245 174.04 5.00974 173.871C4.77574 173.684 4.47857 173.593 4.17978 173.619C3.881 173.645 3.6035 173.784 3.40479 174.009C3.18666 174.324 3.0932 174.709 3.1425 175.089C3.16353 175.47 3.28645 175.839 3.49846 176.157C4.13265 176.95 4.91007 177.618 5.79035 178.124C6.65816 177.665 7.42816 177.042 8.05726 176.288C8.28679 175.984 8.4312 175.624 8.47567 175.245C8.54835 174.869 8.47703 174.479 8.27584 174.152V174.152Z" fill="#EE3025"/>
<path d="M17.3435 174.408C17.1614 174.171 16.8931 174.014 16.5964 173.972C16.2997 173.93 15.9984 174.006 15.7573 174.184C15.521 174.34 15.3219 174.546 15.1741 174.788C15.0263 175.03 14.9333 175.301 14.9017 175.583C14.8755 175.296 14.7884 175.019 14.6462 174.769C14.5041 174.519 14.3101 174.303 14.0774 174.134C13.844 173.945 13.5465 173.853 13.2472 173.879C12.948 173.905 12.6703 174.045 12.4724 174.271C12.2532 174.586 12.1596 174.971 12.2102 175.351C12.2281 175.733 12.3513 176.103 12.5661 176.419C13.2003 177.213 13.9777 177.88 14.858 178.386C15.7231 177.924 16.4924 177.301 17.1249 176.55C17.3547 176.244 17.4991 175.882 17.5433 175.501C17.6148 175.125 17.5435 174.735 17.3435 174.408V174.408Z" fill="#EE3025"/>
<path d="M13.6465 179.523C13.545 180.375 13.1246 181.158 12.4697 181.713C11.8148 182.268 10.9741 182.555 10.1165 182.515C9.25892 182.476 8.44812 182.113 7.84712 181.5C7.24613 180.887 6.8995 180.069 6.87695 179.211L13.6465 179.523Z" fill="white"/>
<path d="M203.193 243.14L201.944 236.546L190.11 238.644L191.827 248.53L192.57 248.448C195.874 248.055 209.282 246.007 211.342 244.926C213.672 243.721 203.193 243.14 203.193 243.14Z" fill="#EE3025"/>
<path d="M211.561 244.271C211.561 244.383 207.19 245.289 201.719 246.294C196.249 247.299 191.827 248.024 191.808 247.911C191.79 247.799 196.18 246.9 201.644 245.894C207.108 244.889 211.524 244.164 211.561 244.271Z" fill="#263238"/>
<path d="M203.648 244.439C203.542 244.402 203.561 244.039 203.755 243.652C203.948 243.265 204.217 243.028 204.31 243.084C204.404 243.14 204.31 243.465 204.117 243.827C203.923 244.189 203.755 244.483 203.648 244.439Z" fill="#263238"/>
<path d="M204.485 244.745C204.373 244.745 204.354 244.327 204.485 243.871C204.617 243.415 204.904 243.115 205.004 243.165C205.104 243.215 205.004 243.584 204.873 244.002C204.741 244.421 204.598 244.764 204.485 244.745Z" fill="#263238"/>
<path d="M195.324 247.212C195.28 247.256 195.074 247.112 194.762 246.868C194.375 246.546 193.957 246.264 193.513 246.025C193.111 245.805 192.66 245.689 192.201 245.688C191.833 245.688 191.608 245.807 191.577 245.75C191.546 245.694 191.739 245.507 192.164 245.401C192.713 245.291 193.283 245.378 193.775 245.644C194.25 245.9 194.673 246.24 195.024 246.65C195.249 246.937 195.38 247.174 195.324 247.212Z" fill="#263238"/>
<path d="M203.442 243.19C203.517 243.271 203.355 243.54 203.043 243.727C202.73 243.915 202.418 243.927 202.381 243.821C202.343 243.715 202.562 243.54 202.837 243.371C203.111 243.203 203.38 243.115 203.442 243.19Z" fill="#263238"/>
<path d="M203.155 242.597C203.155 242.709 202.887 242.859 202.487 242.941C202.087 243.022 201.756 242.99 201.744 242.878C201.731 242.766 202.031 242.616 202.406 242.541C202.78 242.466 203.124 242.491 203.155 242.597Z" fill="#263238"/>
<path d="M217.431 173.415C213.765 166.015 194.119 137.388 194.119 137.388L183.634 138.487V138.425L171.899 139.711L165.43 140.423L188.854 242.734L205.054 242.441L201.157 223.512C203.836 216.799 219.461 177.512 217.431 173.415ZM200.72 177.831L194.931 193.374L188.374 161.525L200.72 177.831Z" fill="#263238"/>
<path d="M187.724 90.1331C187.574 89.0652 188.148 84.6251 188.148 84.6251C188.148 84.6251 192.226 84.3253 192.607 80.3036C192.988 76.2819 193.032 66.9707 193.032 66.9707L185.744 63.1113L177.395 69.019L175.234 74.6394L178.082 81.6213L177.994 83.9319V89.2214L187.724 90.1331Z" fill="#FFBE9D"/>
<path d="M192.489 73.7154C192.486 73.8181 192.453 73.9177 192.394 74.0017C192.335 74.0856 192.252 74.15 192.156 74.1867C192.06 74.2234 191.955 74.2307 191.855 74.2078C191.755 74.1848 191.664 74.1326 191.593 74.0578C191.523 73.9829 191.476 73.8889 191.459 73.7875C191.443 73.6861 191.456 73.582 191.499 73.4884C191.541 73.3949 191.61 73.316 191.698 73.2619C191.785 73.2078 191.887 73.1809 191.989 73.1845C192.057 73.1861 192.124 73.2012 192.186 73.2288C192.248 73.2565 192.304 73.2961 192.35 73.3455C192.397 73.3949 192.433 73.453 192.457 73.5165C192.48 73.58 192.491 73.6476 192.489 73.7154V73.7154Z" fill="#263238"/>
<path d="M192.526 73.1719C192.458 73.2406 192.083 72.9034 191.533 72.8535C190.984 72.8035 190.553 73.0595 190.497 72.9846C190.441 72.9097 190.541 72.8285 190.728 72.7098C190.979 72.5584 191.273 72.4927 191.565 72.5225C191.855 72.5469 192.129 72.6653 192.345 72.8597C192.508 73.0158 192.558 73.147 192.526 73.1719Z" fill="#263238"/>
<path d="M185.957 73.0846C186.039 73.1451 186.102 73.2288 186.138 73.3251C186.173 73.4214 186.179 73.5259 186.154 73.6255C186.13 73.7251 186.077 73.8153 186.001 73.8846C185.926 73.954 185.831 73.9994 185.73 74.0151C185.629 74.0308 185.525 74.0162 185.432 73.973C185.339 73.9298 185.261 73.8599 185.208 73.7724C185.155 73.6848 185.128 73.5834 185.133 73.481C185.137 73.3786 185.172 73.2797 185.232 73.197C185.272 73.142 185.323 73.0955 185.381 73.0601C185.439 73.0247 185.504 73.0012 185.571 72.9907C185.638 72.9803 185.707 72.9832 185.773 72.9993C185.839 73.0154 185.902 73.0444 185.957 73.0846V73.0846Z" fill="#263238"/>
<path d="M186.363 72.9784C186.294 73.0408 185.925 72.7036 185.37 72.6599C184.814 72.6162 184.389 72.866 184.333 72.7848C184.277 72.7036 184.377 72.6349 184.564 72.5162C184.815 72.3643 185.108 72.2965 185.401 72.3226C185.693 72.3488 185.97 72.4694 186.188 72.6661C186.35 72.816 186.4 72.9471 186.363 72.9784Z" fill="#263238"/>
<path d="M188.217 77.7371C188.516 77.6704 188.823 77.641 189.129 77.6497C189.273 77.6497 189.41 77.6496 189.448 77.531C189.466 77.3756 189.443 77.218 189.379 77.0751C189.273 76.7067 189.16 76.3195 189.035 75.9136C188.711 74.9239 188.46 73.9115 188.286 72.8848C188.425 73.1573 188.534 73.4442 188.611 73.7403C188.786 74.2774 189.017 75.0205 189.235 75.8511C189.348 76.257 189.46 76.6505 189.56 77.0189C189.639 77.2046 189.652 77.4117 189.597 77.6059C189.575 77.6545 189.541 77.697 189.499 77.7296C189.456 77.7622 189.407 77.7841 189.354 77.7933C189.273 77.805 189.191 77.805 189.11 77.7933C188.811 77.8099 188.512 77.7911 188.217 77.7371V77.7371Z" fill="#263238"/>
<path d="M186.369 78.1992C185.813 77.812 187.886 79.1797 189.023 79.2109C188.811 79.4905 188.509 79.6894 188.168 79.7745C187.828 79.8597 187.468 79.8261 187.149 79.6792C185.994 79.1359 186.369 78.1992 186.369 78.1992Z" fill="white"/>
<path d="M188.149 84.625C186.236 84.484 184.403 83.7994 182.865 82.6516C182.865 82.6516 183.977 85.6492 188.03 85.6117L188.149 84.625Z" fill="#EB996E"/>
<path d="M178.556 75.7634C178.556 75.7634 178.5 75.8071 178.4 75.8633C178.26 75.9293 178.099 75.9405 177.951 75.8945C177.72 75.7681 177.528 75.5819 177.394 75.3556C177.26 75.1293 177.189 74.8711 177.189 74.6081C177.161 74.314 177.199 74.0173 177.301 73.74C177.327 73.6312 177.379 73.5303 177.453 73.4465C177.527 73.3626 177.621 73.2983 177.726 73.2592C177.793 73.2355 177.866 73.2364 177.932 73.2615C177.998 73.2867 178.054 73.3345 178.088 73.3966C178.138 73.4903 178.119 73.5652 178.138 73.5652C178.157 73.5652 178.213 73.5027 178.176 73.3654C178.151 73.2813 178.098 73.2083 178.026 73.1593C177.977 73.1256 177.922 73.1022 177.864 73.0903C177.806 73.0785 177.746 73.0786 177.688 73.0906C177.549 73.1268 177.422 73.1981 177.318 73.2976C177.214 73.397 177.137 73.5214 177.095 73.6589C176.967 73.9668 176.916 74.301 176.945 74.6331C176.949 74.94 177.042 75.2392 177.215 75.4934C177.387 75.7477 177.63 75.9458 177.913 76.0632C178.006 76.0848 178.103 76.0848 178.196 76.0632C178.289 76.0415 178.376 75.9988 178.45 75.9383C178.556 75.8259 178.569 75.7696 178.556 75.7634Z" fill="#EB996E"/>
<path d="M194.075 67.639C193.855 67.7128 193.626 67.7569 193.394 67.7701C194.154 67.3716 194.778 66.7565 195.187 66.0028C195.486 65.4822 195.643 64.8922 195.643 64.2917C195.643 63.6912 195.486 63.1012 195.187 62.5806C194.864 62.0769 194.368 61.7095 193.792 61.5483C193.216 61.3871 192.601 61.4433 192.064 61.7063C192.271 61.2766 192.315 60.7865 192.187 60.327C192.06 59.8675 191.77 59.4699 191.371 59.2083C190.957 58.9626 190.492 58.8132 190.012 58.7711C189.532 58.7289 189.049 58.7951 188.598 58.9648C187.699 59.3114 186.857 59.7913 186.1 60.3886C186.044 60.0655 185.91 59.7608 185.712 59.5C185.513 59.2392 185.254 59.0299 184.957 58.8898C184.361 58.6129 183.693 58.5278 183.047 58.6463C182.107 58.8072 181.239 59.253 180.561 59.9231C179.883 60.5933 179.428 61.4556 179.256 62.3932C178.961 62.0909 178.593 61.8696 178.188 61.7505C177.783 61.6315 177.354 61.6187 176.943 61.7134C176.531 61.8082 176.151 62.0072 175.838 62.2914C175.526 62.5756 175.292 62.9354 175.159 63.3362C175.162 63.3653 175.162 63.3946 175.159 63.4237C174.785 63.586 174.471 63.8611 174.26 64.2105C174.082 64.5087 173.973 64.8426 173.939 65.188C173.906 65.5335 173.949 65.8821 174.066 66.2089C174.305 66.8509 174.743 67.3999 175.315 67.7764C175.535 67.9306 175.728 68.1181 175.89 68.3322C176.013 68.519 176.089 68.7336 176.108 68.9567C176.052 70.3056 175.365 71.5795 175.028 72.9035C174.566 74.7395 175.584 77.2437 176.171 79.0422C176.758 80.8408 176.964 81.5402 178.107 81.6838L178.282 76.8503C177.033 77.8744 175.365 74.3523 176.458 72.9472C177.551 71.5421 178.713 72.0229 178.912 72.9097C178.99 73.2505 179.088 73.5862 179.206 73.9151H180.455L180.318 72.8597C180.318 72.8597 180.061 68.1698 182.303 67.8638C182.889 67.7397 183.499 67.8519 184.002 68.176C184.724 68.4669 185.507 68.5762 186.281 68.4945C187.081 68.4945 188.155 67.5828 188.155 66.7897C188.612 67.3233 189.192 67.7387 189.844 68.0007C190.496 68.2627 191.202 68.3636 191.902 68.2947C192.264 68.2569 192.618 68.1707 192.957 68.0387C193.38 68.1557 193.827 68.1448 194.244 68.0074C194.672 67.8683 195.048 67.6 195.318 67.2393C195.518 66.9583 195.555 66.746 195.518 66.7272C195.106 67.1293 194.615 67.44 194.075 67.639V67.639ZM175.465 67.4891C174.956 67.1353 174.568 66.634 174.354 66.0528C174.252 65.771 174.213 65.4707 174.238 65.1722C174.262 64.8738 174.351 64.5842 174.497 64.3229C174.628 64.0723 174.819 63.8578 175.053 63.6984C174.841 65.116 175.765 66.5524 176.009 68.0324C175.858 67.8311 175.684 67.6487 175.49 67.4891H175.465Z" fill="#EE3025"/>
<path d="M215.545 73.503V81.5527C215.545 82.4289 215.893 83.2692 216.513 83.8887C217.132 84.5083 217.973 84.8563 218.849 84.8563H232.794V89.4588L235.292 85.0561C236.032 85.0025 236.724 84.6706 237.229 84.1272C237.734 83.5838 238.015 82.8692 238.014 82.1273V73.503C238.014 73.066 237.926 72.6335 237.757 72.2306C237.588 71.8276 237.341 71.4622 237.029 71.1555C236.718 70.8488 236.349 70.607 235.943 70.4439C235.538 70.2809 235.104 70.1999 234.667 70.2057H218.849C217.974 70.2057 217.134 70.5529 216.515 71.1711C215.896 71.7893 215.547 72.6279 215.545 73.503V73.503Z" fill="#EE3025"/>
<path d="M223.133 77.9556C223.133 78.2249 223.053 78.4881 222.903 78.712C222.754 78.9358 222.541 79.1103 222.292 79.2134C222.044 79.3164 221.77 79.3434 221.506 79.2908C221.242 79.2383 220.999 79.1087 220.809 78.9183C220.618 78.7279 220.489 78.4853 220.436 78.2212C220.384 77.9571 220.411 77.6834 220.514 77.4346C220.617 77.1859 220.791 76.9732 221.015 76.8236C221.239 76.6741 221.502 76.5942 221.771 76.5942C222.132 76.5942 222.479 76.7376 222.734 76.9929C222.989 77.2483 223.133 77.5945 223.133 77.9556Z" fill="white"/>
<path d="M228.304 77.9556C228.304 78.2249 228.224 78.4881 228.074 78.712C227.925 78.9358 227.712 79.1103 227.463 79.2134C227.214 79.3164 226.941 79.3434 226.677 79.2908C226.413 79.2383 226.17 79.1087 225.98 78.9183C225.789 78.7279 225.659 78.4853 225.607 78.2212C225.554 77.9571 225.581 77.6834 225.684 77.4346C225.787 77.1859 225.962 76.9732 226.186 76.8236C226.41 76.6741 226.673 76.5942 226.942 76.5942C227.303 76.5942 227.65 76.7376 227.905 76.9929C228.16 77.2483 228.304 77.5945 228.304 77.9556Z" fill="white"/>
<path d="M233.474 77.9556C233.474 78.2249 233.395 78.4881 233.245 78.712C233.095 78.9358 232.883 79.1103 232.634 79.2134C232.385 79.3164 232.111 79.3434 231.847 79.2908C231.583 79.2383 231.341 79.1087 231.15 78.9183C230.96 78.7279 230.83 78.4853 230.778 78.2212C230.725 77.9571 230.752 77.6834 230.855 77.4346C230.958 77.1859 231.133 76.9732 231.357 76.8236C231.581 76.6741 231.844 76.5942 232.113 76.5942C232.474 76.5942 232.82 76.7376 233.076 76.9929C233.331 77.2483 233.474 77.5945 233.474 77.9556Z" fill="white"/>
<path d="M226.549 97.4272C226.268 96.8027 208.532 112.459 204.997 112.996L194.656 99.5193C194.656 99.5193 192.508 96.1158 187.893 90.283C184.92 86.5361 176.708 87.298 174.547 91.888C170.881 99.6754 170.756 109.998 167.921 126.585L165.523 140.655C165.523 140.655 169.064 140.236 169.052 140.267L194.231 137.651L194.856 120.79C199.852 125.835 201.375 126.891 203.967 126.491C210.48 125.479 233.268 104.984 233.268 104.984C233.268 104.984 226.823 98.0642 226.549 97.4272Z" fill="#455A64"/>
<path d="M230.196 107.85C229.741 107.573 229.321 107.242 228.947 106.863C226.998 105.133 225.3 103.141 223.901 100.943C223.585 100.503 223.327 100.025 223.133 99.5192C223.47 99.9244 223.777 100.354 224.051 100.806C224.625 101.611 225.443 102.71 226.424 103.859C227.404 105.008 228.353 105.989 229.059 106.688C229.469 107.043 229.85 107.432 230.196 107.85V107.85Z" fill="#263238"/>
<path d="M203.992 118.335C204.099 116.524 204.418 114.732 204.941 112.996C204.842 114.807 204.524 116.6 203.992 118.335Z" fill="#263238"/>
<path d="M206.253 117.779C205.887 117.046 205.62 116.267 205.46 115.463C205.192 114.689 205.03 113.882 204.979 113.064C205.341 113.8 205.608 114.578 205.772 115.381C206.036 116.156 206.198 116.962 206.253 117.779Z" fill="#263238"/>
<path opacity="0.2" d="M181.485 103.098L194.593 127.877L194.887 120.527L181.485 103.098Z" fill="black"/>
<path d="M180.636 101.892C180.865 102.124 181.074 102.375 181.26 102.642L182.822 104.734C184.139 106.507 185.982 108.937 188.049 111.603L193.357 118.404L194.949 120.477C195.155 120.723 195.338 120.987 195.499 121.264C195.272 121.046 195.063 120.81 194.874 120.558C194.444 120.034 193.881 119.359 193.201 118.548C191.802 116.836 189.885 114.463 187.818 111.803C185.751 109.143 183.933 106.682 182.659 104.877C182.035 103.972 181.517 103.235 181.179 102.717C180.974 102.459 180.792 102.183 180.636 101.892V101.892Z" fill="#263238"/>
<path d="M181.048 109.636C180.941 109.394 180.864 109.141 180.817 108.881C180.692 108.387 180.53 107.682 180.336 106.814L180.53 106.907L177.951 108.3L177.776 108.394L177.72 108.2C177.626 107.863 177.526 107.507 177.42 107.145L176.97 105.527L177.201 105.621L174.66 107.051L174.504 107.138V106.963C174.356 106.193 174.268 105.412 174.241 104.628C174.467 105.38 174.634 106.148 174.741 106.926L174.56 106.839L177.058 105.346L177.233 105.24L177.289 105.44C177.432 105.958 177.589 106.501 177.745 107.057C177.851 107.419 177.951 107.775 178.044 108.112L177.813 108.019L180.417 106.664L180.574 106.576L180.605 106.751C180.767 107.619 180.898 108.337 180.973 108.837C181.032 109.099 181.057 109.368 181.048 109.636Z" fill="#263238"/>
<path d="M184.127 95.6288C183.878 95.5335 183.643 95.4054 183.428 95.2479C182.997 94.9794 182.391 94.5859 181.654 94.0988L181.854 94.0301C181.592 94.8607 181.298 95.81 180.98 96.8279L180.917 97.0215L180.742 96.9215L179.793 96.3657L178.344 95.5164L178.575 95.4228L177.745 98.2205L177.695 98.3891L177.557 98.2829C176.916 97.8302 176.311 97.3291 175.746 96.7842C176.429 97.1707 177.082 97.6069 177.701 98.0893L177.514 98.1518C177.732 97.3275 177.988 96.3782 178.269 95.3416L178.325 95.1417L178.5 95.2479L179.955 96.0847L180.905 96.6405L180.674 96.728L181.585 93.9365L181.648 93.7679L181.791 93.8678C182.51 94.3799 183.097 94.8045 183.503 95.1168C183.731 95.2611 183.941 95.4331 184.127 95.6288V95.6288Z" fill="#263238"/>
<path d="M193.326 100.444C193.106 100.293 192.907 100.114 192.732 99.9129C192.37 99.5569 191.858 99.0386 191.246 98.4016H191.458C191.021 99.1572 190.522 100.013 189.991 100.943L189.891 101.112L189.741 100.974L188.935 100.231L187.686 99.0885L187.936 99.0448C187.412 99.9878 186.931 100.843 186.512 101.586L186.425 101.743L186.313 101.611C185.788 101.024 185.307 100.398 184.876 99.738C185.458 100.263 186.001 100.831 186.5 101.437H186.3L187.655 98.8575L187.755 98.6763L187.905 98.8137L189.154 99.9566L189.953 100.706H189.71L191.221 98.208L191.315 98.0581L191.433 98.1892C192.058 98.8137 192.508 99.3883 192.832 99.7755C193.027 99.9742 193.193 100.199 193.326 100.444V100.444Z" fill="#E0E0E0"/>
<path d="M217.581 116.212C217.581 116.212 217.369 116.012 217.056 115.619C216.744 115.225 216.301 114.645 215.776 113.933H215.988L214.215 116.268L214.09 116.424L213.965 116.275L213.253 115.431L212.185 114.145H212.435L210.705 116.487L210.599 116.631L210.505 116.487C210.059 115.843 209.66 115.166 209.313 114.464C209.824 115.051 210.29 115.678 210.705 116.337H210.505C210.999 115.644 211.561 114.838 212.179 113.951L212.298 113.789L212.429 113.945L213.509 115.232L214.215 116.075H213.965L215.782 113.777L215.895 113.633L215.995 113.777C216.501 114.507 216.906 115.107 217.187 115.531C217.343 115.743 217.475 115.972 217.581 116.212V116.212Z" fill="#263238"/>
<path d="M202.562 114.95C202.338 114.822 202.128 114.669 201.937 114.495C201.538 114.182 200.969 113.726 200.289 113.171L200.495 113.121L199.308 115.794L199.233 115.975L199.071 115.856L198.178 115.232L196.823 114.232L197.066 114.164C196.654 115.163 196.28 116.037 195.949 116.855L195.88 117.024L195.755 116.899C195.164 116.385 194.615 115.826 194.113 115.225C194.751 115.678 195.355 116.179 195.917 116.724L195.724 116.768C196.03 115.968 196.386 115.05 196.773 114.051L196.848 113.858L197.01 113.976L198.372 114.963L199.258 115.587L199.015 115.656L200.226 112.983L200.301 112.821L200.432 112.933C201.094 113.52 201.638 114.001 202.012 114.345C202.387 114.688 202.581 114.926 202.562 114.95Z" fill="#E0E0E0"/>
<path d="M224.051 111.422C223.966 111.171 223.911 110.911 223.888 110.648C223.813 110.142 223.713 109.399 223.601 108.549L223.788 108.656L221.091 109.817L220.909 109.892L220.872 109.699C220.81 109.349 220.741 108.987 220.672 108.618C220.566 108.044 220.466 107.494 220.372 106.963L220.591 107.076L217.937 108.3L217.775 108.368V108.193C217.698 107.413 217.683 106.628 217.731 105.845C217.886 106.615 217.98 107.396 218.012 108.181L217.843 108.075L220.472 106.826L220.653 106.732L220.691 106.938C220.791 107.469 220.897 108.019 221.003 108.587C221.072 108.962 221.134 109.324 221.197 109.667L220.978 109.549L223.695 108.443L223.863 108.375V108.549C223.945 109.43 224.007 110.154 224.038 110.66C224.071 110.913 224.075 111.169 224.051 111.422V111.422Z" fill="#E0E0E0"/>
<path d="M194.113 104.765C193.908 104.927 193.686 105.065 193.451 105.177C193.014 105.427 192.377 105.802 191.577 106.195L191.615 105.983L193.657 108.087L193.794 108.231L193.626 108.337L192.689 108.905L191.252 109.78V109.53L193.313 111.591L193.438 111.722L193.276 111.791C192.573 112.138 191.844 112.43 191.096 112.665C191.762 112.248 192.457 111.881 193.176 111.566L193.145 111.766L191.034 109.755L190.884 109.617L191.059 109.511L192.495 108.631L193.432 108.062V108.306C192.701 107.532 192.021 106.801 191.427 106.164L191.302 106.033L191.465 105.958C192.258 105.571 192.914 105.252 193.37 105.046C193.604 104.92 193.854 104.825 194.113 104.765V104.765Z" fill="#263238"/>
<path d="M205.572 118.335C205.367 118.505 205.143 118.65 204.904 118.766C204.466 119.016 203.83 119.391 203.03 119.778L203.061 119.572L205.11 121.676L205.247 121.814L205.078 121.92L204.142 122.494L202.699 123.362L202.73 123.119L204.791 125.18L204.916 125.305L204.754 125.373C204.05 125.719 203.321 126.014 202.574 126.254C203.252 125.837 203.959 125.472 204.691 125.161L204.654 125.361L202.549 123.35L202.399 123.206L202.574 123.1L204.004 122.226L204.947 121.651L204.916 121.901L202.912 119.759L202.787 119.628L202.943 119.553C203.736 119.16 204.392 118.847 204.854 118.635C205.079 118.504 205.32 118.404 205.572 118.335V118.335Z" fill="#E0E0E0"/>
<path d="M182.834 118.154C182.73 117.91 182.652 117.654 182.603 117.392C182.478 116.899 182.316 116.193 182.122 115.332L182.316 115.419L179.712 116.824L179.537 116.924L179.487 116.73C179.387 116.387 179.287 116.031 179.187 115.669C179.031 115.113 178.875 114.57 178.731 114.051L178.962 114.145L176.427 115.575L176.271 115.663V115.488C176.127 114.719 176.04 113.94 176.009 113.158C176.236 113.908 176.403 114.674 176.508 115.45L176.327 115.363L178.825 113.87L179 113.77L179.056 113.964C179.2 114.482 179.356 115.026 179.518 115.581L179.812 116.643L179.581 116.543L182.185 115.188L182.341 115.107L182.378 115.275C182.541 116.143 182.666 116.862 182.747 117.361C182.807 117.621 182.837 117.887 182.834 118.154Z" fill="#E0E0E0"/>
<path d="M193.238 124.05C193.132 123.805 193.055 123.55 193.007 123.288C192.882 122.794 192.72 122.089 192.526 121.227L192.72 121.314L190.147 122.719L189.972 122.819L189.916 122.626C189.816 122.282 189.716 121.926 189.616 121.57C189.46 121.008 189.31 120.465 189.16 119.947L189.391 120.04L186.856 121.47L186.7 121.558V121.389C186.556 120.618 186.469 119.837 186.438 119.054C186.664 119.803 186.831 120.57 186.937 121.345L186.756 121.264L189.254 119.772L189.429 119.666L189.485 119.865C189.635 120.384 189.785 120.921 189.947 121.477L190.241 122.538L190.016 122.438L192.614 121.083L192.776 121.002L192.807 121.171C192.97 122.039 193.095 122.757 193.176 123.256C193.232 123.517 193.253 123.784 193.238 124.05V124.05Z" fill="#263238"/>
<path d="M177.969 137.026C177.862 136.785 177.785 136.531 177.738 136.271C177.613 135.777 177.451 135.072 177.257 134.21L177.451 134.297L174.878 135.702L174.703 135.796L174.647 135.603C174.547 135.265 174.447 134.909 174.347 134.547L173.898 132.93L174.122 133.023L171.593 134.478L171.437 134.566V134.391C171.293 133.62 171.206 132.839 171.175 132.055C171.401 132.807 171.568 133.576 171.674 134.354L171.493 134.266L173.991 132.774L174.166 132.667L174.222 132.867C174.372 133.386 174.522 133.929 174.684 134.485L174.978 135.54L174.753 135.446L177.351 134.091L177.513 134.004L177.545 134.179C177.707 135.047 177.832 135.765 177.913 136.265C177.968 136.514 177.987 136.771 177.969 137.026Z" fill="#E0E0E0"/>
<path d="M178.269 123.406C178.032 123.285 177.812 123.134 177.613 122.956C177.207 122.657 176.633 122.207 175.946 121.651L176.152 121.601L175.022 124.312L174.947 124.493L174.784 124.374C174.491 124.174 174.191 123.956 173.885 123.75L172.524 122.769L172.761 122.7L171.674 125.404L171.606 125.567L171.481 125.448C170.887 124.937 170.33 124.384 169.813 123.793C170.461 124.236 171.073 124.728 171.643 125.267L171.45 125.317C171.743 124.518 172.074 123.593 172.468 122.588L172.536 122.394L172.705 122.513L174.091 123.475L174.984 124.099L174.747 124.162L175.927 121.476L176.002 121.314L176.133 121.426C176.802 122.007 177.351 122.482 177.726 122.825C177.929 122.997 178.111 123.192 178.269 123.406V123.406Z" fill="#263238"/>
<path d="M183.715 123.775C183.527 123.958 183.317 124.118 183.09 124.249C182.672 124.53 182.06 124.924 181.31 125.392V125.18L183.502 127.134L183.646 127.272L183.484 127.384L182.591 128.009L181.217 128.977V128.733L183.459 130.657L183.59 130.775L183.44 130.856C182.761 131.251 182.054 131.593 181.323 131.881C181.958 131.417 182.626 130.999 183.321 130.632V130.831L181.073 128.958L180.917 128.827L181.086 128.708L182.453 127.734L183.346 127.109V127.359L181.198 125.367L181.067 125.242L181.217 125.155C181.979 124.711 182.609 124.349 183.059 124.106C183.263 123.968 183.483 123.857 183.715 123.775V123.775Z" fill="#263238"/>
<path d="M189.704 128.034C189.587 128.272 189.44 128.494 189.266 128.696C188.967 129.108 188.523 129.682 187.98 130.382L187.93 130.176L190.653 131.268L190.834 131.337L190.722 131.506L190.097 132.411L189.135 133.791L189.06 133.548L191.777 134.597L191.946 134.666L191.827 134.791C191.327 135.395 190.78 135.959 190.191 136.477C190.631 135.828 191.117 135.213 191.646 134.634L191.696 134.828L188.954 133.848L188.761 133.779L188.879 133.61C189.179 133.167 189.504 132.705 189.828 132.224C190.047 131.918 190.253 131.599 190.453 131.325L190.522 131.562L187.83 130.419L187.668 130.35L187.78 130.213C188.348 129.532 188.817 128.964 189.154 128.602C189.491 128.24 189.704 128.015 189.704 128.034Z" fill="#E0E0E0"/>
<path d="M186.306 138.213C186.306 138.213 186.306 138.282 186.375 138.419C186.444 138.556 186.481 138.775 186.556 139.043C186.706 139.587 186.931 140.392 187.181 141.435C187.43 142.478 187.749 143.752 187.967 145.27C188.116 146.097 188.005 146.95 187.649 147.711C187.254 148.555 186.712 149.323 186.05 149.978V149.872C187.686 157.641 189.978 168.526 192.52 180.566C194.987 192.431 197.191 203.141 198.765 210.916C199.545 214.801 200.164 217.948 200.57 220.128C200.776 221.214 200.926 222.064 201.019 222.626C201.088 222.916 201.121 223.214 201.119 223.512C201.119 223.512 201.069 223.213 200.957 222.638C200.844 222.064 200.663 221.208 200.445 220.14C199.989 217.948 199.339 214.813 198.54 210.948C196.916 203.173 194.687 192.456 192.22 180.622C189.722 168.57 187.462 157.678 185.85 149.91V149.847L185.894 149.803C187.218 148.473 188.111 146.793 187.768 145.282C187.568 143.777 187.262 142.491 187.031 141.448C186.8 140.405 186.6 139.618 186.462 139.05L186.312 138.425C186.302 138.355 186.3 138.284 186.306 138.213V138.213Z" fill="#455A64"/>
<path d="M173.155 139.712C173.155 139.712 173.254 139.849 173.348 140.136C173.482 140.54 173.561 140.96 173.585 141.385C173.689 142.812 173.258 144.226 172.378 145.354C171.498 146.481 170.23 147.241 168.821 147.487C168.409 147.563 167.989 147.588 167.572 147.562C167.416 147.564 167.261 147.537 167.116 147.48C167.116 147.418 167.778 147.48 168.796 147.262C170.123 146.97 171.307 146.224 172.143 145.152C172.978 144.08 173.414 142.75 173.373 141.392C173.333 140.828 173.26 140.267 173.155 139.712V139.712Z" fill="#455A64"/>
<path d="M183.615 140.38C183.615 140.38 183.615 140.286 183.765 140.205C183.858 140.151 183.962 140.116 184.069 140.102C184.176 140.088 184.285 140.095 184.389 140.124C184.551 140.163 184.696 140.251 184.808 140.374C184.919 140.498 184.991 140.652 185.014 140.817C185.044 141.024 185.004 141.234 184.901 141.416C184.798 141.597 184.637 141.739 184.444 141.819C184.251 141.899 184.037 141.911 183.836 141.856C183.635 141.8 183.458 141.678 183.334 141.51C183.232 141.38 183.168 141.224 183.149 141.06C183.13 140.896 183.157 140.729 183.228 140.58C183.484 140.074 183.896 140.061 183.883 140.099C183.871 140.136 183.583 140.249 183.446 140.661C183.406 140.772 183.395 140.891 183.416 141.008C183.437 141.124 183.488 141.233 183.565 141.323C183.658 141.428 183.779 141.503 183.915 141.54C184.05 141.576 184.193 141.573 184.327 141.529C184.452 141.469 184.556 141.372 184.625 141.252C184.694 141.131 184.725 140.993 184.714 140.854C184.705 140.738 184.662 140.627 184.59 140.536C184.517 140.445 184.419 140.377 184.308 140.342C184.079 140.28 183.836 140.294 183.615 140.38Z" fill="#455A64"/>
<path d="M196.817 141.766C196.461 142.017 196.041 142.163 195.605 142.185C194.555 142.342 193.484 142.112 192.591 141.538C191.698 140.963 191.045 140.083 190.753 139.062C190.603 138.664 190.562 138.233 190.634 137.813C190.691 137.813 190.703 138.3 190.965 139.018C191.296 139.956 191.929 140.758 192.764 141.298C193.599 141.838 194.589 142.086 195.58 142.004C196.342 141.904 196.798 141.716 196.817 141.766Z" fill="#455A64"/>
<path d="M203.674 237.245C203.47 237.301 203.26 237.326 203.049 237.32L201.35 237.414L195.73 237.682L190.11 237.976L188.405 238.044C188.198 238.074 187.987 238.074 187.78 238.044C187.982 237.976 188.192 237.938 188.405 237.932C188.798 237.882 189.379 237.82 190.097 237.757C191.527 237.626 193.513 237.482 195.718 237.37C197.922 237.258 199.902 237.208 201.338 237.201C202.056 237.201 202.637 237.201 203.043 237.201C203.254 237.187 203.466 237.202 203.674 237.245V237.245Z" fill="#455A64"/>
<path d="M175.165 146.837C175.253 146.837 180.161 167.089 186.15 192.113C192.139 217.136 196.904 237.451 196.816 237.47C196.729 237.488 191.82 217.224 185.832 192.188C179.843 167.152 175.078 146.856 175.165 146.837Z" fill="#455A64"/>
<path d="M191.146 147.643C191.189 147.684 191.227 147.73 191.259 147.78L191.565 148.186L192.726 149.778L196.935 155.655L203.149 164.398L206.802 169.575C208.051 171.373 209.3 173.39 209.631 175.764C209.962 178.137 209.269 180.429 208.551 182.483C207.833 184.538 207.046 186.536 206.321 188.416C204.86 192.163 203.474 195.548 202.268 198.351C201.063 201.155 200.045 203.41 199.333 204.959L198.49 206.738L198.265 207.194C198.209 207.294 198.184 207.35 198.178 207.344C198.189 207.288 198.208 207.233 198.234 207.182C198.284 207.057 198.353 206.901 198.434 206.707L199.215 204.909C199.895 203.341 200.882 201.074 202.056 198.264C203.23 195.454 204.598 192.082 206.04 188.31C206.759 186.436 207.502 184.444 208.245 182.377C208.988 180.31 209.637 178.093 209.313 175.807C208.988 173.522 207.758 171.548 206.54 169.756L202.905 164.573L196.748 155.761L192.62 149.822L191.515 148.198C191.396 148.024 191.302 147.886 191.234 147.774C191.165 147.661 191.14 147.643 191.146 147.643Z" fill="#455A64"/>
<path d="M222.883 98.0642L236.828 87.8849L237.515 88.9778L223.657 99.2819L222.883 98.0642Z" fill="#263238"/>
<path d="M226.33 97.7519C226.33 97.7519 228.204 92.8808 228.622 91.8442C229.041 90.8075 229.752 89.0027 230.021 88.9653C230.289 88.9278 231.27 89.0777 229.99 92.1752C228.71 95.2726 231.495 93.3804 231.495 93.3804L234.18 91.457C234.18 91.457 236.303 97.8018 235.098 99.7128C234.149 101.143 233.084 102.492 231.913 103.747L226.33 97.7519Z" fill="#FFBE9D"/>
<path d="M49.3488 178.492C49.5299 177.437 49.1302 173.578 49.1302 173.578C49.1302 173.578 45.0835 173.147 44.8399 169.137C44.5964 165.128 44.8399 155.873 44.8399 155.873L52.209 152.27L60.3274 158.409L59.0784 178.474L49.3488 178.492Z" fill="#B78876"/>
<path d="M45.958 162.58C45.958 162.716 46.012 162.846 46.108 162.942C46.204 163.039 46.3343 163.092 46.4701 163.092C46.6059 163.092 46.7362 163.039 46.8322 162.942C46.9282 162.846 46.9822 162.716 46.9822 162.58C46.9822 162.513 46.9689 162.447 46.9432 162.384C46.9175 162.322 46.8797 162.266 46.8322 162.218C46.7846 162.171 46.7282 162.133 46.6661 162.107C46.6039 162.082 46.5373 162.068 46.4701 162.068C46.4028 162.068 46.3363 162.082 46.2741 162.107C46.212 162.133 46.1555 162.171 46.108 162.218C46.0604 162.266 46.0227 162.322 45.997 162.384C45.9712 162.447 45.958 162.513 45.958 162.58V162.58Z" fill="#263238"/>
<path d="M45.2084 162.212C45.2709 162.274 45.6518 161.956 46.2014 161.925C46.7509 161.894 47.1693 162.162 47.2318 162.087C47.2942 162.012 47.188 161.931 47.0069 161.806C46.763 161.646 46.4738 161.569 46.1826 161.587C45.8913 161.607 45.6137 161.719 45.3895 161.906C45.2271 162.05 45.1709 162.181 45.2084 162.212Z" fill="#263238"/>
<path d="M52.4464 162.999C52.7292 162.999 52.9585 162.77 52.9585 162.487C52.9585 162.204 52.7292 161.975 52.4464 161.975C52.1636 161.975 51.9343 162.204 51.9343 162.487C51.9343 162.77 52.1636 162.999 52.4464 162.999Z" fill="#263238"/>
<path d="M51.1787 162.112C51.2474 162.181 51.6221 161.856 52.1779 161.831C52.7337 161.806 53.1458 162.068 53.202 161.993C53.2582 161.918 53.1646 161.837 52.9835 161.712C52.7392 161.553 52.4502 161.477 52.1591 161.494C51.8672 161.511 51.5889 161.623 51.366 161.812C51.1974 161.956 51.1475 162.087 51.1787 162.112Z" fill="#263238"/>
<path d="M49.2801 166.727C48.9845 166.65 48.6801 166.612 48.3746 166.615C48.2372 166.615 48.0998 166.583 48.0686 166.483C48.0513 166.329 48.0796 166.173 48.1498 166.034L48.5245 164.891C48.8823 163.919 49.1642 162.921 49.3675 161.906C48.9478 162.852 48.5951 163.827 48.3122 164.822C48.181 165.222 48.0624 165.609 47.9499 165.971C47.8642 166.153 47.8444 166.358 47.8937 166.552C47.9148 166.602 47.9473 166.646 47.9885 166.68C48.0298 166.715 48.0786 166.74 48.1311 166.752C48.2097 166.764 48.2897 166.764 48.3684 166.752C48.6722 166.78 48.9783 166.772 49.2801 166.727Z" fill="#263238"/>
<path d="M51.11 167.252C50.3013 167.763 49.3836 168.078 48.4309 168.17C48.6337 168.45 48.9254 168.654 49.2587 168.748C49.592 168.842 49.9473 168.821 50.2669 168.688C51.4472 168.195 51.11 167.252 51.11 167.252Z" fill="white"/>
<path d="M49.1301 173.578C51.037 173.498 52.8812 172.874 54.4446 171.779C54.4446 171.779 53.2393 174.727 49.2176 174.564L49.1301 173.578Z" fill="#A36957"/>
<path d="M65.6421 161.382C65.6421 161.382 67.2782 170.63 59.4658 172.298L59.6969 161.157L65.6421 161.382Z" fill="#263238"/>
<path d="M65.3859 159.333C64.8983 157.354 63.9863 155.504 62.7131 153.913C63.8372 154.381 64.5866 154.849 64.7427 154.699C64.8988 154.55 64.6115 154.269 64.1182 153.85C63.4775 153.326 62.7448 152.926 61.9574 152.67L61.589 152.57C62.1044 152.365 62.5752 152.061 62.9754 151.677C63.4544 151.228 63.7856 150.644 63.9251 150.003C64.0645 149.362 64.0055 148.693 63.756 148.086C63.474 147.57 63.0451 147.149 62.5237 146.877C62.0024 146.604 61.4119 146.493 60.8271 146.556C60.2461 146.638 59.6925 146.855 59.2109 147.191C58.7293 147.526 58.3332 147.969 58.0544 148.486C57.9198 148.733 57.809 148.992 57.7234 149.26C57.7423 148.816 57.7882 148.374 57.8608 147.936C58.1106 146.394 58.6851 145.238 58.5914 145.188C57.9991 145.973 57.6301 146.903 57.5235 147.88C57.5235 148.03 57.4861 148.173 57.4673 148.317C57.3447 147.918 57.1945 147.528 57.0177 147.149C56.6368 146.344 56.2746 145.9 56.1684 145.969C55.9498 146.075 56.6617 147.768 56.9552 150.053C56.2527 149.819 55.5215 149.683 54.782 149.647C53.4206 149.647 51.16 149.023 47.9626 151.589C46.88 152.281 45.9442 153.178 45.2085 154.231C44.1519 155.778 43.5563 157.592 43.4912 159.464C43.4719 160.026 43.5074 160.589 43.5973 161.144C43.6164 161.349 43.6692 161.55 43.7535 161.737C43.8159 161.737 43.6348 160.869 43.7535 159.477C43.8237 158.444 44.0533 157.429 44.4342 156.467C43.9584 158.132 44.0642 159.909 44.7339 161.506L51.8844 160.389C51.4222 158.821 51.7595 156.336 51.978 155.118C53.227 160.957 58.2542 163.761 58.2542 163.761L65.7793 162.581C65.6732 161.9 65.5483 159.945 65.3859 159.333Z" fill="#263238"/>
<path d="M82.6968 248.773C82.9278 248.886 101.375 252.52 100.695 250.022C100.014 247.524 82.8592 243.602 82.8592 243.602L82.6968 248.773Z" fill="#EE3025"/>
<path d="M91.0837 247.143C91.1712 247.143 91.3023 247.568 91.2961 248.123C91.2898 248.679 91.1587 249.116 91.0712 249.104C90.9838 249.091 90.9651 248.654 90.9713 248.123C90.9776 247.593 90.9963 247.149 91.0837 247.143Z" fill="#263238"/>
<path d="M90.1033 246.806C90.1845 246.806 90.3469 247.299 90.2844 247.949C90.222 248.598 89.9909 249.073 89.9097 249.042C89.8285 249.01 89.9097 248.523 89.9597 247.917C90.0096 247.312 90.0096 246.818 90.1033 246.806Z" fill="#263238"/>
<path d="M88.9103 246.706C88.9977 246.706 89.1226 247.193 89.1351 247.817C89.1476 248.442 89.0414 248.942 88.954 248.935C88.8666 248.929 88.8229 248.436 88.8104 247.824C88.7979 247.212 88.8229 246.712 88.9103 246.706Z" fill="#263238"/>
<path d="M86.6623 244.901C86.7591 244.896 86.8561 244.907 86.9496 244.932C87.1369 244.932 87.4117 245.02 87.7614 245.101C88.4671 245.251 89.485 245.494 90.7277 245.838C91.9705 246.181 93.4443 246.612 95.0555 247.162C95.8611 247.437 96.7166 247.718 97.5534 248.086C98.4606 248.452 99.2942 248.979 100.014 249.641C100.126 249.731 100.218 249.844 100.282 249.972C100.322 250.063 100.328 250.165 100.3 250.26C100.271 250.355 100.21 250.436 100.126 250.49C99.8859 250.615 99.6163 250.673 99.3457 250.659C98.8649 250.696 98.3903 250.715 97.9281 250.728C96.9976 250.728 96.0984 250.728 95.2428 250.659C93.538 250.553 92.0142 250.34 90.7402 250.141C89.4663 249.941 88.4421 249.741 87.7364 249.597L86.9246 249.429C86.8274 249.416 86.7327 249.388 86.6436 249.347C87.0168 249.36 87.3885 249.402 87.7552 249.472L90.7715 249.91C92.0204 250.084 93.5692 250.272 95.2616 250.365C96.1109 250.409 96.9976 250.434 97.9219 250.409C98.3778 250.409 98.8524 250.378 99.3208 250.34C99.5355 250.353 99.75 250.312 99.9453 250.222C100.001 250.178 100.008 250.153 99.989 250.097C99.9369 250.012 99.8715 249.936 99.7954 249.872C99.1017 249.237 98.3001 248.732 97.4286 248.38C96.5917 248.017 95.7424 247.755 94.9306 247.443C93.3256 246.887 91.8643 246.425 90.6341 246.056C89.4038 245.688 88.3921 245.432 87.6989 245.22C87.3468 245.136 87.0005 245.03 86.6623 244.901V244.901Z" fill="#263238"/>
<path d="M96.4605 247.642C96.5479 247.674 96.3668 248.373 96.4605 249.235C96.5542 250.097 96.7915 250.765 96.704 250.809C96.3715 250.356 96.1744 249.818 96.1357 249.257C96.097 248.697 96.2183 248.137 96.4855 247.642H96.4605Z" fill="#263238"/>
<path d="M21.7149 245.12C21.4588 245.12 2.84268 247.686 4.28526 249.779C5.72784 251.871 23.2386 250.035 23.2386 250.035L21.7149 245.12Z" fill="#EE3025"/>
<path d="M14.2836 249.397C14.2087 249.435 13.9402 249.06 13.7653 248.536C13.5905 248.011 13.5967 247.561 13.6592 247.561C13.7216 247.561 13.9027 247.955 14.0713 248.461C14.2399 248.967 14.3648 249.354 14.2836 249.397Z" fill="#263238"/>
<path d="M15.3265 249.391C15.2515 249.435 14.933 249.004 14.7769 248.373C14.6208 247.743 14.6895 247.212 14.7769 247.212C14.8643 247.212 14.9455 247.705 15.0954 248.292C15.2453 248.879 15.4077 249.347 15.3265 249.391Z" fill="#263238"/>
<path d="M16.4818 249.098C16.4006 249.135 16.1258 248.704 15.9072 248.117C15.6887 247.53 15.6262 247.024 15.7136 246.999C15.8011 246.974 16.0009 247.437 16.2132 248.005C16.4256 248.573 16.5629 249.06 16.4818 249.098Z" fill="#263238"/>
<path d="M19.2171 250.059C19.1271 250.094 19.0324 250.116 18.9361 250.122L18.1117 250.228C17.3936 250.315 16.3569 250.415 15.0704 250.497C13.784 250.578 12.2477 250.646 10.5429 250.659C9.68731 250.659 8.79428 250.659 7.85754 250.603C6.88156 250.56 5.92212 250.336 5.02859 249.941C4.89144 249.892 4.76593 249.816 4.66014 249.716C4.59825 249.64 4.56445 249.545 4.56445 249.447C4.56445 249.35 4.59825 249.255 4.66014 249.179C4.84397 248.979 5.0796 248.834 5.34083 248.761C5.78422 248.567 6.22137 248.398 6.65851 248.23C7.53281 247.911 8.3946 247.649 9.21894 247.418C10.8676 246.962 12.3789 246.668 13.6466 246.444C14.9143 246.219 15.951 246.069 16.6629 245.975L17.4872 245.869C17.5824 245.854 17.6793 245.854 17.7745 245.869C17.4172 245.979 17.0517 246.06 16.6816 246.113L13.6903 246.681C12.4413 246.937 10.93 247.255 9.31886 247.718C8.50077 247.955 7.65146 248.217 6.82088 248.542C6.38998 248.711 5.95284 248.879 5.51569 249.067C5.31202 249.125 5.12559 249.232 4.97238 249.379C4.93491 249.441 4.93491 249.46 4.97238 249.51C5.05053 249.575 5.13926 249.625 5.23467 249.66C6.09465 250.031 7.01525 250.243 7.95122 250.284C8.86298 250.359 9.76225 250.353 10.6116 250.359C12.3102 250.359 13.8402 250.322 15.1266 250.272C16.4131 250.222 17.4498 250.147 18.1679 250.103C18.5163 250.065 18.8668 250.051 19.2171 250.059V250.059Z" fill="#263238"/>
<path d="M9.04403 250.684C8.94411 250.684 8.89415 249.966 8.54443 249.173C8.19472 248.379 7.73259 247.83 7.80129 247.767C7.86998 247.705 8.48198 248.173 8.84419 249.016C9.12242 249.526 9.19398 250.123 9.04403 250.684Z" fill="#263238"/>
<path d="M79.4371 222.519H69.9635L34.9919 223.425L25 222.132C23.445 221.788 22.4209 221.645 22.0899 221.751C20.7477 222.311 19.5716 223.205 18.6739 224.349C14.8645 228.895 17.2626 235.902 22.9954 237.463L28.3785 238.925L16.6006 242.709L20.5786 254C20.5786 254 38.1643 250.197 55.2192 246.181L82.5096 253.563L86.4439 240.892L81.8164 239.387C84.7203 238.5 86.5563 237.8 86.8123 237.376C88.5297 234.715 91.571 222.344 79.3934 222.532" fill="#455A64"/>
<path opacity="0.2" d="M81.6665 239.43L61.383 247.83L55.2505 246.169L81.6665 239.43Z" fill="black"/>
<path opacity="0.2" d="M28.4656 223.468L54.432 230.906L74.2097 224.162L28.4656 223.468Z" fill="black"/>
<path d="M24.7688 253.182C24.4372 252.668 24.1589 252.122 23.9383 251.552C23.4761 250.522 22.8766 249.054 22.2896 247.455C21.7026 245.857 21.2217 244.333 20.9157 243.259C20.7181 242.681 20.5779 242.084 20.4973 241.479C20.7517 242.031 20.9606 242.604 21.1218 243.19C21.484 244.258 21.9898 245.732 22.5769 247.343C23.1639 248.954 23.7322 250.409 24.1381 251.458C24.3919 252.016 24.6028 252.592 24.7688 253.182V253.182Z" fill="#263238"/>
<path d="M87.368 226.728C87.3174 226.759 87.2628 226.782 87.2057 226.797L86.7186 226.978L84.8451 227.64L77.9195 229.994C72.043 231.955 63.9121 234.609 54.9006 237.438C45.8892 240.267 37.6959 242.734 31.7569 244.483L24.7126 246.518L22.7954 247.049L22.2896 247.18C22.2329 247.198 22.1741 247.209 22.1147 247.212L22.2834 247.149L22.7767 246.987L24.6502 246.394L31.6632 244.258C37.5897 242.459 45.7643 239.955 54.7695 237.126C63.7747 234.297 71.9181 231.68 77.807 229.776L84.7889 227.521L86.6936 226.897L87.1869 226.747C87.2461 226.732 87.3071 226.726 87.368 226.728V226.728Z" fill="#263238"/>
<path d="M68.4586 226.272C68.3326 226.344 68.1984 226.401 68.0589 226.441L66.8974 226.866C65.8857 227.228 64.3994 227.74 62.5884 228.358C58.9413 229.607 53.8892 231.256 48.3 233.048C42.7108 234.841 37.6274 236.42 33.9366 237.532C32.0632 238.088 30.5956 238.525 29.5652 238.819L28.3724 239.15C28.2332 239.19 28.0913 239.222 27.9478 239.243C28.0765 239.176 28.2128 239.123 28.3537 239.087L29.5277 238.7L33.8992 237.313L48.225 232.742L62.5384 228.14L66.8787 226.747L68.0652 226.379C68.1922 226.329 68.3241 226.294 68.4586 226.272V226.272Z" fill="#263238"/>
<path d="M54.3009 230.863C54.3009 230.95 48.4744 229.364 41.3365 227.322C34.1985 225.28 28.4407 223.575 28.4657 223.469C28.4906 223.362 34.2922 224.967 41.4239 227.009C48.5556 229.051 54.3259 230.775 54.3009 230.863Z" fill="#263238"/>
<path d="M82.6593 240.03C82.0193 242.138 81.2731 244.212 80.4236 246.244C79.1059 249.641 77.9694 252.364 77.8882 252.333C78.5266 250.227 79.2728 248.155 80.1239 246.125C81.4416 242.728 82.5781 239.999 82.6593 240.03Z" fill="#263238"/>
<path d="M80.2238 245.263C78.5012 244.966 76.7976 244.568 75.1217 244.07C73.4268 243.67 71.7584 243.165 70.1257 242.559C71.8486 242.855 73.5524 243.253 75.2278 243.752C76.9227 244.152 78.5912 244.657 80.2238 245.263Z" fill="#263238"/>
<path d="M41.3804 234.909C41.0532 234.87 40.7296 234.805 40.4124 234.716L37.8021 234.091C35.6038 233.529 32.5626 232.767 29.2465 231.768C26.404 230.933 23.6191 229.913 20.9095 228.714C19.8791 228.24 19.036 227.828 18.499 227.522C18.2001 227.381 17.9157 227.211 17.6497 227.016C17.9612 227.123 18.264 227.255 18.5552 227.409C19.1297 227.678 19.9603 228.034 21.0032 228.502C23.7278 229.634 26.5107 230.62 29.3402 231.456C32.65 232.455 35.6788 233.248 37.8645 233.866L40.4437 234.61C40.7652 234.678 41.079 234.778 41.3804 234.909V234.909Z" fill="#263238"/>
<path d="M60.5771 177.937H59.809L59.6966 175.276L49.1489 175.901C49.1489 175.901 49.2551 177.15 49.2488 178.018C42.7541 178.642 32.3438 181.977 32.094 196.596L40.4247 196.79C39.7191 203.497 39.8002 207.5 39.1195 210.017C37.958 214.176 34.2797 222.956 35.0166 223.4C35.7535 223.843 69.9383 224.474 71.5682 223.587C73.1981 222.7 70.2318 211.241 69.4886 208.131C69.0203 206.145 68.9204 201.599 68.9079 198.083L78.4751 197.652C78.4751 197.652 79.1683 177.88 60.5771 177.937Z" fill="#EE3025"/>
<path d="M59.7531 177.831C59.2491 177.979 58.7292 178.067 58.2043 178.093C57.2363 178.205 55.8999 178.311 54.4199 178.343C52.9398 178.374 51.6034 178.343 50.6355 178.255C50.1093 178.247 49.5856 178.179 49.0742 178.055C49.5944 177.994 50.1195 177.983 50.6417 178.024C51.6097 178.024 52.9398 178.024 54.3887 178.024C55.8375 178.024 57.1926 177.924 58.1356 177.874C58.6721 177.808 59.2138 177.793 59.7531 177.831V177.831Z" fill="#263238"/>
<path d="M51.0662 175.813C51.1598 175.813 51.2285 176.326 51.2285 176.956C51.2285 177.587 51.1598 178.105 51.0662 178.105C50.9725 178.105 50.9038 177.593 50.9038 176.956C50.9038 176.319 50.9475 175.813 51.0662 175.813Z" fill="#263238"/>
<path d="M53.8578 175.614C53.9452 175.614 54.0327 176.176 54.0514 176.863C54.1085 177.283 54.0658 177.711 53.9265 178.112C53.8328 178.112 53.7454 177.549 53.7267 176.863C53.6676 176.442 53.7126 176.013 53.8578 175.614V175.614Z" fill="#263238"/>
<path d="M56.7681 175.514C56.8555 175.514 56.9804 176.063 56.9929 176.763C57.0054 177.462 56.9117 178.011 56.818 178.011C56.6818 177.61 56.6307 177.185 56.6682 176.763C56.6869 176.088 56.6869 175.52 56.7681 175.514Z" fill="#263238"/>
<path d="M58.8787 175.414C58.9724 175.414 59.0348 175.963 59.1223 176.632C59.2097 177.3 59.2784 177.849 59.191 177.881C59.1035 177.912 58.885 177.375 58.8038 176.675C58.7226 175.976 58.7913 175.408 58.8787 175.414Z" fill="#263238"/>
<path d="M41.7425 196.634C41.5745 195.602 41.5117 194.556 41.5552 193.512C41.489 192.469 41.535 191.422 41.6926 190.389C41.8576 191.421 41.9203 192.467 41.8799 193.512C41.9381 194.554 41.8921 195.6 41.7425 196.634Z" fill="#263238"/>
<path d="M68.5519 197.677C68.2989 196.569 68.1484 195.44 68.1022 194.305C67.9516 193.177 67.9119 192.037 67.9836 190.901C68.3845 193.137 68.5747 195.405 68.5519 197.677V197.677Z" fill="#263238"/>
<path d="M41.7424 196.634C41.2663 196.697 40.7851 196.712 40.306 196.678H36.8651H33.4179C32.9409 196.712 32.4618 196.697 31.9878 196.634C32.453 196.514 32.9313 196.454 33.4116 196.453C34.2922 196.384 35.5162 196.334 36.8651 196.34C38.214 196.347 39.438 196.39 40.3185 196.459C40.7984 196.461 41.2764 196.52 41.7424 196.634Z" fill="#263238"/>
<path d="M78.4565 197.677C76.7653 197.841 75.0651 197.896 73.3669 197.839C71.6665 197.896 69.9643 197.841 68.271 197.677C69.9645 197.516 71.6665 197.462 73.3669 197.514C75.0651 197.462 76.765 197.516 78.4565 197.677V197.677Z" fill="#263238"/>
<path d="M78.0382 197.758C78.0382 197.758 80.5361 221.07 73.3919 223.362C66.2477 225.654 52.1592 214.801 52.1592 214.801L56.2184 206.582C56.2184 206.582 65.5858 213.089 67.6091 211.622C69.6325 210.154 68.5771 197.758 68.5771 197.758H78.0382Z" fill="#B78876"/>
<path d="M32.2127 196.634C32.2127 196.634 29.671 219.709 36.809 222.007C43.9469 224.305 58.0417 213.439 58.0417 213.439L53.9763 205.221C53.9763 205.221 44.5527 211.247 42.598 209.723C41.4677 208.837 41.4364 196.753 41.4364 196.753C38.1141 196.609 35.0354 196.465 32.2127 196.634Z" fill="#B78876"/>
<path d="M73.5917 201.443L68.8518 224.674C68.8518 224.674 39.7254 224.449 39.4257 224.362C39.1259 224.274 36.3032 201.443 36.3032 201.443H73.5917Z" fill="#263238"/>
<path d="M52.671 213.214C52.6472 213.564 52.7292 213.913 52.9063 214.216C53.0834 214.519 53.3475 214.761 53.6641 214.912C53.9808 215.063 54.3355 215.115 54.6821 215.061C55.0288 215.008 55.3513 214.851 55.6078 214.612C55.8644 214.373 56.0431 214.062 56.1208 213.72C56.1984 213.378 56.1714 213.021 56.0433 212.694C55.9152 212.368 55.6918 212.087 55.4022 211.889C55.1127 211.691 54.7703 211.585 54.4196 211.584C53.9722 211.571 53.5375 211.734 53.2101 212.04C52.8826 212.345 52.6889 212.767 52.671 213.214V213.214Z" fill="white"/>
<path d="M58.7911 162.243C59.0549 162.08 59.355 161.985 59.6645 161.967C59.9741 161.948 60.2834 162.007 60.5647 162.137C60.924 162.427 61.1604 162.842 61.2267 163.299C61.3104 163.668 61.306 164.053 61.2138 164.42C61.1216 164.788 60.9442 165.129 60.6958 165.416C60.4369 165.692 60.0906 165.871 59.7153 165.922C59.34 165.973 58.9585 165.894 58.635 165.697" fill="#B78876"/>
<path d="M59.5406 165.06C59.5406 165.01 59.7404 164.978 59.9715 164.804C60.124 164.705 60.2473 164.567 60.3285 164.404C60.4098 164.242 60.4461 164.061 60.4336 163.879C60.4158 163.7 60.3517 163.529 60.2477 163.382C60.1437 163.236 60.0033 163.118 59.8403 163.042C59.578 162.918 59.3782 162.924 59.372 162.874C59.3657 162.824 59.5718 162.73 59.9215 162.818C60.1499 162.885 60.3527 163.02 60.504 163.204C60.6552 163.388 60.7479 163.613 60.77 163.85C60.7922 164.087 60.7428 164.326 60.6284 164.535C60.5139 164.743 60.3394 164.913 60.1276 165.022C59.7654 165.159 59.5406 165.128 59.5406 165.06Z" fill="#A36957"/>
</svg>
