<svg width="314" height="254" viewBox="0 0 314 254" fill="none" xmlns="http://www.w3.org/2000/svg">
<path d="M313.205 240.215H287.484V240.409H313.205V240.215Z" fill="#EBEBEB"/>
<path d="M221.038 242.327H214.289V242.522H221.038V242.327Z" fill="#EBEBEB"/>
<path d="M286.707 233.008H271.804V233.202H286.707V233.008Z" fill="#EBEBEB"/>
<path d="M38.0924 234.313H4.55078V234.507H38.0924V234.313Z" fill="#EBEBEB"/>
<path d="M49.9279 234.313H45.012V234.507H49.9279V234.313Z" fill="#EBEBEB"/>
<path d="M138.663 237.59H65.9104V237.784H138.663V237.59Z" fill="#EBEBEB"/>
<path d="M253.609 31.7119H242.604V65.968H253.609V31.7119Z" fill="#E6E6E6"/>
<path d="M283.438 65.9681H246.922L241.408 25.8719H277.924L283.438 65.9681Z" fill="#F0F0F0"/>
<path d="M287.391 65.9681H249.679L244.165 25.8719H281.877L287.391 65.9681Z" fill="#F5F5F5"/>
<path d="M252.405 62.8071L247.76 29.0325H279.151L283.803 62.8071H252.405Z" fill="white"/>
<path d="M258.61 52.5792L256.863 39.905C256.811 39.5705 256.832 39.2287 256.926 38.9034C257.019 38.5781 257.183 38.2771 257.404 38.0213C257.626 37.7656 257.901 37.5612 258.21 37.4225C258.519 37.2837 258.854 37.2139 259.192 37.2179H270.601C271.172 37.2136 271.725 37.4192 272.154 37.7958C272.584 38.1723 272.86 38.6935 272.931 39.2604L274.67 51.9424C274.721 52.2763 274.698 52.6172 274.604 52.9416C274.51 53.2659 274.346 53.5659 274.125 53.8208C273.903 54.0756 273.629 54.2793 273.321 54.4176C273.013 54.5559 272.678 54.6255 272.34 54.6217H260.947C260.375 54.6279 259.82 54.4232 259.389 54.0464C258.958 53.6697 258.68 53.1474 258.61 52.5792V52.5792Z" fill="#F5F5F5"/>
<path d="M185.328 4.08304H37.3093V95.9567H185.328V4.08304Z" fill="#E6E6E6"/>
<path d="M189.411 0H32.2051V95.957H189.411V0Z" fill="#F0F0F0"/>
<path d="M185.104 95.6499H20.6265V103.501H185.104V95.6499Z" fill="#E6E6E6"/>
<path d="M196.365 95.6499H29.6353V103.501H196.365V95.6499Z" fill="#F0F0F0"/>
<path d="M183.286 89.8318V10.2079L44.455 10.2079V89.8318L183.286 89.8318Z" fill="#FAFAFA"/>
<path d="M39.8865 89.7321L74.6085 0.0961914H90.9949L56.2729 89.7321H39.8865Z" fill="white"/>
<path d="M59.7986 89.7321L94.5206 0.0961914H100.904L66.1823 89.7321H59.7986Z" fill="white"/>
<path d="M120.545 89.7321L155.267 0.0961914H161.65L126.936 89.7321H120.545Z" fill="white"/>
<path d="M183.403 89.7321V0.0961914L182.65 0.0961914V89.7321H183.403Z" fill="#E6E6E6"/>
<path d="M309.788 65.9679H274.965V227.719H309.788V65.9679Z" fill="#E6E6E6"/>
<path d="M306.286 227.72H309.788V217.756H302.612L306.286 227.72Z" fill="#F0F0F0"/>
<path d="M248.77 65.9679H213.947V227.719H248.77V65.9679Z" fill="#E6E6E6"/>
<path d="M309.788 65.9679H245.71V221.608H309.788V65.9679Z" fill="#F0F0F0"/>
<path d="M249.213 227.72H245.71V217.756H252.886L249.213 227.72Z" fill="#F0F0F0"/>
<path d="M307.07 68.8181H248.428V142.238H307.07V68.8181Z" fill="#E6E6E6"/>
<path d="M284.098 74.534H271.4C268.671 74.5338 265.969 73.9772 263.462 72.8984C260.954 71.8195 258.693 70.2409 256.816 68.259H298.683C296.806 70.242 294.545 71.8213 292.037 72.9003C289.529 73.9792 286.828 74.5351 284.098 74.534V74.534Z" fill="#F0F0F0"/>
<path d="M307.07 145.213H248.428V218.633H307.07V145.213Z" fill="#E6E6E6"/>
<path d="M284.098 150.929H271.4C268.671 150.928 265.969 150.372 263.462 149.293C260.954 148.214 258.693 146.636 256.816 144.654H298.683C296.806 146.637 294.545 148.216 292.037 149.295C289.529 150.374 286.828 150.93 284.098 150.929V150.929Z" fill="#F0F0F0"/>
<path d="M64.3806 117.045H122.331L130.734 151.27H72.7757L64.3806 117.045Z" fill="#E6E6E6"/>
<path d="M72.7756 151.27L73.0164 153.158H130.967L130.734 151.27H72.7756Z" fill="#E6E6E6"/>
<path d="M66.1667 117.045H124.117L132.52 151.27H74.5619L66.1667 117.045Z" fill="#F0F0F0"/>
<path d="M75.7888 149.702L68.1548 118.606H122.89L130.524 149.702H75.7888Z" fill="white"/>
<path d="M89.6667 151.27L89.8997 153.158H153.713L153.48 151.27H89.6667Z" fill="#F0F0F0"/>
<path d="M168.275 153.157H161.332V227.712H168.275V153.157Z" fill="#E6E6E6"/>
<path d="M170.473 153.157H165.65V227.712H170.473V153.157Z" fill="#F0F0F0"/>
<path d="M82.4989 161.692H171.972V153.157H82.4989V161.692Z" fill="#F0F0F0"/>
<path d="M79.3845 161.692H72.4417V227.712H79.3845V161.692Z" fill="#E6E6E6"/>
<path d="M81.5744 161.692H76.7517V227.712H81.5744V161.692Z" fill="#F0F0F0"/>
<path d="M35.4365 161.692H28.4937V227.712H35.4365V161.692Z" fill="#E6E6E6"/>
<path d="M37.6342 161.692H32.8115V227.712H37.6342V161.692Z" fill="#F0F0F0"/>
<path d="M124.334 161.692H117.392V227.712H124.334V161.692Z" fill="#E6E6E6"/>
<path d="M126.524 161.692H121.702V227.712H126.524V161.692Z" fill="#F0F0F0"/>
<path d="M82.4911 153.157H28.4937V161.692H82.4911V153.157Z" fill="#E6E6E6"/>
<path d="M190.843 227.719H189.158L184.366 203.924L183.519 199.754L178.208 173.823H158.016L147.089 227.719H145.38L156.532 172.829C156.568 172.647 156.664 172.483 156.805 172.363C156.946 172.243 157.124 172.174 157.309 172.169H178.93C179.117 172.167 179.299 172.232 179.442 172.354C179.584 172.475 179.678 172.644 179.706 172.829L184.366 195.599L185.143 199.762L190.843 227.719Z" fill="#F0F0F0"/>
<path d="M223.266 227.719H221.573L210.623 173.823H190.432L185.143 199.761L184.366 203.924L179.528 227.719H177.843L183.52 199.761L184.358 195.607L189.018 172.837C189.055 172.655 189.151 172.492 189.292 172.372C189.433 172.252 189.61 172.183 189.795 172.176H211.346C211.531 172.182 211.709 172.25 211.85 172.37C211.991 172.49 212.087 172.655 212.122 172.837L223.266 227.719Z" fill="#F0F0F0"/>
<path d="M173.494 172.992H210.6C217.683 172.992 221.612 168.177 223.616 160.24L224.594 155.705C224.925 154.333 224.939 152.904 224.637 151.526C224.335 150.148 223.723 148.856 222.849 147.748C221.975 146.641 220.861 145.746 219.59 145.132C218.32 144.518 216.927 144.2 215.516 144.203H192.218C187.403 144.203 186.129 145.353 182.797 152.606C179.466 159.86 173.494 172.992 173.494 172.992Z" fill="#F0F0F0"/>
<path d="M193.724 172.992H154.18C153.687 172.992 153.215 172.797 152.867 172.448C152.519 172.1 152.323 171.628 152.323 171.136V170.965C152.323 170.298 152.455 169.638 152.71 169.022C152.965 168.405 153.339 167.845 153.811 167.374C154.283 166.902 154.843 166.528 155.459 166.273C156.075 166.018 156.736 165.886 157.403 165.886H193.724V173V172.992Z" fill="#F0F0F0"/>
<path d="M121.484 229.156L116.514 232.356L107.505 221.88L112.476 218.68L121.484 229.156Z" fill="#FF8B7B"/>
<path opacity="0.2" d="M112.483 218.68L107.505 221.88L112.157 227.285L117.128 224.077L112.483 218.68Z" fill="black"/>
<path d="M83.5006 246.242L77.7848 246.801L71.8438 233.21L77.5596 232.651L83.5006 246.242Z" fill="#FF8B7B"/>
<path opacity="0.2" d="M71.8516 233.218L74.9114 240.223H80.868L77.5596 232.659L71.8516 233.218Z" fill="black"/>
<path d="M40.0961 62.7685C37.2227 63.0248 37.145 58.1477 32.0971 60.4387C25.6823 63.3587 27.8491 67.8863 22.8399 67.6999C17.8308 67.5136 14.4759 71.4199 15.5942 74.3321C16.7125 77.2444 18.4444 80.0014 14.903 81.174C11.3617 82.3467 8.95423 83.3796 9.46679 86.3152C9.97935 89.2508 12.4878 90.4312 8.26305 92.3028C4.03831 94.1744 4.46545 102.267 8.60476 102.274C12.7441 102.282 8.77561 106.313 12.4878 110.413C16.2 114.514 21.8459 115.073 24.199 113.054C26.5521 111.035 29.1771 109.365 33.6037 112.471C38.0304 115.578 45.5246 116.354 45.1829 111.431C44.8412 106.507 40.5233 103.276 44.5927 100.713C48.6621 98.1507 53.912 96.8848 52.2656 91.899C51.2171 88.7926 48.0486 86.09 50.6036 83.7679C54.7585 79.9936 54.7818 71.4509 49.6872 69.2842C46.7283 68.0339 49.5785 61.9142 40.0961 62.7685Z" fill="#263238"/>
<path d="M34.5666 101.148C34.4268 103.478 34.1317 105.552 33.79 107.734C33.4483 109.916 32.9513 112.044 32.3843 114.18C31.8317 116.339 31.1284 118.456 30.2797 120.517C29.8604 121.558 29.3789 122.59 28.8663 123.623C28.61 124.136 28.3304 124.641 28.0431 125.138C27.9111 125.394 27.748 125.642 27.6004 125.914L27.3752 126.279C27.2223 126.522 27.0509 126.754 26.8627 126.97C26.4319 127.457 25.9024 127.846 25.3095 128.112C24.7797 128.352 24.2119 128.497 23.632 128.539C22.7791 128.588 21.9247 128.472 21.1158 128.198C19.9111 127.783 18.7631 127.22 17.6987 126.52C15.8242 125.294 14.0505 123.92 12.3945 122.412C9.20177 119.508 6.22468 116.375 3.48682 113.038L5.69238 110.918C7.24559 112.285 8.7988 113.675 10.4219 114.995C12.045 116.315 13.6293 117.643 15.2835 118.878C16.8583 120.09 18.5195 121.185 20.2537 122.156C20.9869 122.571 21.7698 122.892 22.5836 123.111C22.7794 123.171 22.9858 123.19 23.1893 123.165H23.034C22.9314 123.215 22.8371 123.281 22.7544 123.359L22.7156 123.398C22.7156 123.398 22.7156 123.452 22.7156 123.398L22.8864 123.08C22.9952 122.87 23.1194 122.668 23.2204 122.451C23.4378 122.021 23.6475 121.586 23.8494 121.146C24.2377 120.261 24.626 119.36 24.9367 118.42C25.589 116.556 26.1327 114.63 26.6141 112.673C27.0956 110.716 27.4606 108.72 27.7868 106.709C28.113 104.697 28.3615 102.639 28.5634 100.729L34.5666 101.148Z" fill="#FF8B7B"/>
<path d="M39.0786 101.878C38.768 103.758 37.207 107.315 35.9722 109.955C35.0558 111.865 34.3103 113.302 34.3103 113.302L33.223 112.821L24.2222 108.813C24.9056 103.96 26.0161 98.7175 31.3669 96.3333C34.7063 94.8578 39.63 98.4923 39.0786 101.878Z" fill="#EE3025"/>
<path opacity="0.6" d="M39.0786 101.878C38.768 103.758 37.207 107.315 35.9722 109.955C35.0558 111.865 34.3103 113.302 34.3103 113.302L33.223 112.821L24.2222 108.813C24.9056 103.96 26.0161 98.7175 31.3669 96.3333C34.7063 94.8578 39.63 98.4923 39.0786 101.878Z" fill="black"/>
<path opacity="0.3" d="M35.9489 109.955C35.0325 111.865 34.287 113.302 34.287 113.302L33.1997 112.821C33.3473 110.902 33.7278 107.881 34.7529 106.522C35.3932 107.568 35.8011 108.738 35.9489 109.955V109.955Z" fill="black"/>
<path d="M6.03415 112.697L6.74863 107.47L0.885254 109.365C0.885254 109.365 1.81718 112.526 3.90625 113.823L6.03415 112.697Z" fill="#FF8B7B"/>
<path d="M4.09271 103.004L0 105.249L0.885333 109.396L6.74871 107.47L4.09271 103.004Z" fill="#FF8B7B"/>
<path d="M114.681 230.787L120.079 226.904C120.171 226.836 120.285 226.805 120.4 226.815C120.514 226.825 120.621 226.876 120.7 226.958L124.373 230.787C124.463 230.886 124.53 231.003 124.571 231.131C124.612 231.258 124.625 231.392 124.611 231.525C124.596 231.657 124.553 231.786 124.486 231.901C124.418 232.016 124.327 232.115 124.218 232.193C122.315 233.513 121.329 234.049 118.953 235.75C117.493 236.798 114.417 239.33 112.398 240.774C110.379 242.219 108.849 240.308 109.556 239.524C112.74 236.014 113.586 233.622 114.091 231.649C114.182 231.302 114.391 230.998 114.681 230.787Z" fill="#263238"/>
<path d="M77.0314 245.038H84.0209C84.1466 245.04 84.2682 245.083 84.3676 245.16C84.467 245.237 84.5388 245.344 84.5723 245.465L86.1255 251.01C86.1633 251.141 86.1697 251.279 86.1443 251.413C86.1189 251.547 86.0623 251.673 85.9792 251.781C85.896 251.889 85.7886 251.976 85.6657 252.035C85.5427 252.094 85.4076 252.124 85.2712 252.121C82.8016 252.121 81.629 252.121 78.5458 252.121H69.1178C66.555 252.121 66.0114 249.527 67.0754 249.294C71.8282 248.245 74.5696 246.793 76.0374 245.411C76.3094 245.165 76.6648 245.032 77.0314 245.038V245.038Z" fill="#263238"/>
<path d="M66.361 122.925L43.4745 130.162C27.6317 98.8031 29.8916 97.1412 29.8916 97.1412C29.8916 97.1412 33.5494 95.0521 37.3548 93.3125C37.9295 93.0485 38.512 92.7922 39.0866 92.5359C42.4675 91.1923 45.94 90.0919 49.4776 89.2431C49.998 89.1033 50.5183 88.979 51.0308 88.8548C53.8481 88.2176 56.7007 87.7483 59.5735 87.4491C59.9152 91.7904 60.2569 95.4637 60.6297 98.6556C61.1112 102.818 61.6315 106.15 62.1829 109.031C63.2021 113.766 64.5993 118.412 66.361 122.925V122.925Z" fill="#EE3025"/>
<path opacity="0.6" d="M66.361 122.925L43.4745 130.162C27.6317 98.8031 29.8916 97.1412 29.8916 97.1412C29.8916 97.1412 33.5494 95.0521 37.3548 93.3125C37.9295 93.0485 38.512 92.7922 39.0866 92.5359C42.4675 91.1923 45.94 90.0919 49.4776 89.2431C49.998 89.1033 50.5183 88.979 51.0308 88.8548C53.8481 88.2176 56.7007 87.7483 59.5735 87.4491C59.9152 91.7904 60.2569 95.4637 60.6297 98.6556C61.1112 102.818 61.6315 106.15 62.1829 109.031C63.2021 113.766 64.5993 118.412 66.361 122.925V122.925Z" fill="black"/>
<path opacity="0.3" d="M62.2449 109.046C60.0471 105.94 57.9425 98.7098 58.4861 95.9995L60.6606 98.671C61.1421 102.834 61.6624 106.165 62.2449 109.046Z" fill="black"/>
<path d="M44.2898 102.997C44.2898 102.997 50.06 101.746 51.9161 104.255C54.4633 101.746 53.5625 91.9455 52.3354 88.4507C51.3623 88.616 50.4077 88.8761 49.4853 89.2274L45.4081 95.5334L44.2898 102.997Z" fill="white"/>
<path d="M44.2898 102.997C44.2898 102.997 40.4068 103.866 39.9952 107.043C34.5589 102.997 34.9395 97.0711 36.1665 93.5763C37.098 93.1254 38.0776 92.7815 39.0865 92.5512L43.1637 97.04L44.2898 102.997Z" fill="white"/>
<path d="M45.6179 82.6419C46.3945 85.4998 47.575 88.3266 49.5009 89.2585C49.5009 89.2585 51.2949 94.3997 44.3054 102.997C36.9898 97.7857 39.1022 92.5514 39.1022 92.5514C42.5503 90.4778 41.5796 87.7442 40.1118 85.3522L42.1387 82.0982C42.3406 81.7848 42.6292 81.5367 42.9694 81.3841C43.3096 81.2314 43.6867 81.1808 44.0551 81.2384C44.4235 81.296 44.7673 81.4592 45.0447 81.7083C45.3221 81.9575 45.5212 82.2818 45.6179 82.6419V82.6419Z" fill="#FF8B7B"/>
<path opacity="0.2" d="M45.618 82.6417C45.5251 82.2755 45.3266 81.9448 45.0472 81.6905C44.7678 81.4363 44.4198 81.2698 44.0465 81.2119C43.6732 81.154 43.2911 81.2071 42.9477 81.3647C42.6044 81.5222 42.315 81.7773 42.1155 82.0981L41.4631 83.1388C41.5175 83.8299 41.5486 84.3969 41.5408 84.692C41.4787 86.7112 44.3133 86.618 46.6198 85.6472C46.2087 84.6728 45.8737 83.6679 45.618 82.6417V82.6417Z" fill="black"/>
<path d="M31.5691 74.837C33.5883 80.3432 34.3183 82.7196 38.0149 84.7543C43.5676 87.8219 49.8892 84.1408 49.563 78.1376C49.2679 72.7402 46.0217 64.6324 39.8632 64.0344C38.5058 63.897 37.1357 64.1087 35.8831 64.6495C34.6304 65.1903 33.5367 66.0422 32.7058 67.1244C31.8749 68.2066 31.3343 69.4832 31.1354 70.833C30.9364 72.1829 31.0857 73.5611 31.5691 74.837V74.837Z" fill="#FF8B7B"/>
<path d="M45.8509 66.5583C43.956 64.7333 41.9679 62.6131 38.1625 63.0247C33.9533 63.4829 32.2914 66.0302 32.2914 66.0302L28.6724 73.9438C28.6724 73.9438 30.9168 84.1329 34.6212 79.38C36.7568 76.6309 36.8112 72.476 36.0346 69.3696C37.4899 69.1644 38.9244 68.8318 40.3215 68.3755C42.03 69.0124 43.9482 69.0124 45.3694 67.7077C45.68 67.4203 45.9053 67.1951 46.0683 67.0165L46.2004 66.8689C46.6197 66.3331 46.2703 66.3874 45.8509 66.5583ZM40.9583 68.2047C42.2849 67.7756 43.6328 67.4153 44.9966 67.1252C44.4896 67.6616 43.8435 68.0465 43.1304 68.2371C42.4173 68.4277 41.6653 68.4165 40.9583 68.2047Z" fill="#263238"/>
<path d="M31.8486 80.4362C32.4317 81.4136 33.3784 82.1201 34.4813 82.401C35.9413 82.7661 36.6325 81.4536 36.1898 80.0712C35.7938 78.852 34.5589 77.19 33.0834 77.423C32.7644 77.4813 32.4652 77.619 32.2133 77.8233C31.9614 78.0275 31.7649 78.2919 31.642 78.5919C31.519 78.892 31.4735 79.2182 31.5096 79.5405C31.5457 79.8628 31.6623 80.1708 31.8486 80.4362V80.4362Z" fill="#FF8B7B"/>
<path d="M43.4744 130.17C43.4744 130.17 42.6978 177.069 48.8252 194.015C54.7274 210.261 72.3331 238.188 72.3331 238.188L82.5377 237.932C82.5377 237.932 66.3221 202.558 63.6739 188.579C59.2628 165.381 60.2335 124.897 60.2335 124.897L43.4744 130.17Z" fill="#EE3025"/>
<path opacity="0.3" d="M52.6384 134.216L55.3799 126.45L60.2336 124.897C60.2336 124.897 59.791 143.326 60.8549 162.438C56.4516 153.958 52.6384 138.425 52.6384 134.216Z" fill="black"/>
<path d="M70.8964 238.716L83.5007 238.398L82.7707 234.523L69.0093 235.175L70.8964 238.716Z" fill="#263238"/>
<path d="M48.4602 128.656C48.4602 128.656 64.3806 165.071 74.6707 185.798C82.9803 202.542 108.841 225.001 108.841 225.001L115.932 220.086C115.932 220.086 96.47 193.479 90.7309 182.125C72.3641 145.795 76.8917 130.822 66.3299 122.924L48.4602 128.656Z" fill="#EE3025"/>
<path d="M109.261 227.347L117.586 221.421L115.699 217.787L106.551 224.706L109.261 227.347Z" fill="#263238"/>
<path d="M66.3222 121.472L67.9997 123.196C68.1317 123.328 67.9997 123.553 67.7279 123.639L43.723 131.226C43.5211 131.296 43.3192 131.226 43.2648 131.125L42.4105 129.137C42.3484 129.005 42.4882 128.827 42.7134 128.757L65.8951 121.418C65.9649 121.389 66.041 121.379 66.1159 121.388C66.1908 121.398 66.2619 121.427 66.3222 121.472Z" fill="#263238"/>
<path d="M63.9923 125.052L64.6136 124.858C64.7379 124.858 64.8155 124.718 64.7767 124.648L63.6506 122.078C63.6173 122.036 63.571 122.006 63.5189 121.994C63.4669 121.981 63.4121 121.986 63.3633 122.008L62.742 122.21C62.6177 122.249 62.5401 122.342 62.5789 122.42L63.7128 124.982C63.736 125.06 63.8603 125.091 63.9923 125.052Z" fill="#EE3025"/>
<path d="M45.5016 130.9L46.1228 130.706C46.2471 130.667 46.317 130.574 46.2859 130.496L45.1521 127.926C45.1521 127.848 44.989 127.825 44.8647 127.864L44.2434 128.058C44.127 128.097 44.0493 128.19 44.0804 128.267L45.2142 130.838C45.2493 130.878 45.296 130.905 45.3477 130.916C45.3994 130.927 45.4533 130.922 45.5016 130.9Z" fill="#EE3025"/>
<path d="M54.7431 128.003L55.3643 127.809C55.4886 127.77 55.5663 127.677 55.5274 127.6L54.3936 125.029C54.3936 124.959 54.2383 124.928 54.114 124.967L53.4927 125.161C53.3685 125.161 53.2908 125.293 53.3296 125.371L54.4557 127.941C54.4946 128.003 54.6188 128.003 54.7431 128.003Z" fill="#EE3025"/>
<path d="M41.2301 73.6409C41.3699 74.0991 41.7193 74.4175 42.0067 74.3088C42.294 74.2 42.4338 73.7729 42.294 73.3225C42.1542 72.872 41.8125 72.5459 41.5174 72.6546C41.2223 72.7633 41.098 73.1671 41.2301 73.6409Z" fill="#263238"/>
<path d="M46.3943 72.0878C46.5341 72.546 46.8835 72.8644 47.1709 72.7557C47.4582 72.6469 47.598 72.2276 47.466 71.7694C47.334 71.3112 46.9767 70.9928 46.6894 71.1015C46.402 71.2102 46.2623 71.6296 46.3943 72.0878Z" fill="#263238"/>
<path d="M46.5654 71.1637L47.5673 70.5191C47.5673 70.5191 47.2644 71.5443 46.5654 71.1637Z" fill="#263238"/>
<path d="M45.1052 73.276C45.8258 74.195 46.6669 75.0126 47.6059 75.7068C47.4185 75.9408 47.1827 76.1315 46.9145 76.2655C46.6464 76.3996 46.3523 76.4739 46.0527 76.4834L45.1052 73.276Z" fill="#FF5652"/>
<path d="M44.5151 78.9996C44.5365 78.9823 44.5523 78.9591 44.5606 78.9329C44.5689 78.9066 44.5693 78.8785 44.5617 78.8521C44.5508 78.817 44.5273 78.7872 44.4957 78.7686C44.4641 78.7499 44.4267 78.7437 44.3908 78.7511C43.8267 78.9353 43.227 78.9828 42.6409 78.8896C42.0549 78.7965 41.4994 78.5653 41.0203 78.2152C41.006 78.203 40.9895 78.1937 40.9716 78.1878C40.9538 78.182 40.9349 78.1797 40.9162 78.1812C40.8974 78.1826 40.8791 78.1877 40.8623 78.1963C40.8456 78.2048 40.8307 78.2165 40.8184 78.2308C40.8062 78.245 40.7969 78.2616 40.791 78.2795C40.7852 78.2973 40.7829 78.3162 40.7844 78.3349C40.7858 78.3537 40.7909 78.372 40.7994 78.3887C40.8079 78.4055 40.8197 78.4204 40.8339 78.4327C41.349 78.8133 41.9475 79.0654 42.5797 79.168C43.2119 79.2707 43.8594 79.2209 44.4685 79.0229L44.5151 78.9996Z" fill="#263238"/>
<path d="M39.2808 72.3751C39.317 72.3411 39.3438 72.2983 39.3585 72.2509C39.4738 71.9194 39.6652 71.6195 39.9175 71.3753C40.1697 71.1312 40.4756 70.9496 40.8108 70.8452C40.8498 70.8411 40.8875 70.8289 40.9215 70.8093C40.9554 70.7897 40.9849 70.7631 41.008 70.7314C41.031 70.6996 41.0471 70.6634 41.0552 70.625C41.0633 70.5866 41.0633 70.547 41.055 70.5086C41.0468 70.4702 41.0306 70.434 41.0075 70.4023C40.9844 70.3707 40.9548 70.3442 40.9208 70.3247C40.8868 70.3051 40.849 70.293 40.81 70.289C40.771 70.2851 40.7315 70.2893 40.6943 70.3016C40.2625 70.4251 39.8676 70.6525 39.5441 70.9639C39.2205 71.2752 38.9782 71.6611 38.8382 72.0878C38.8245 72.1224 38.8179 72.1595 38.8187 72.1967C38.8195 72.2339 38.8277 72.2706 38.8429 72.3046C38.8581 72.3386 38.8799 72.3693 38.9071 72.3947C38.9343 72.4201 38.9663 72.4399 39.0013 72.4528C39.0507 72.4629 39.1018 72.4612 39.1504 72.4477C39.199 72.4342 39.2437 72.4093 39.2808 72.3751V72.3751Z" fill="#263238"/>
<path d="M47.971 69.1599C47.9685 69.1419 47.9685 69.1236 47.971 69.1056C47.9807 69.0329 47.9629 68.9593 47.9213 68.899C47.8797 68.8387 47.8171 68.7961 47.7458 68.7794C47.3107 68.6868 46.8598 68.6991 46.4304 68.8152C46.001 68.9313 45.6053 69.148 45.2762 69.4473C45.2247 69.5008 45.1966 69.5726 45.1981 69.6469C45.1995 69.7212 45.2304 69.7918 45.284 69.8433C45.3375 69.8948 45.4093 69.9229 45.4836 69.9215C45.5579 69.92 45.6285 69.8891 45.68 69.8356C45.9431 69.6026 46.2576 69.4354 46.5978 69.3477C46.938 69.2599 47.2942 69.2541 47.6371 69.3308C47.704 69.347 47.7745 69.3387 47.8358 69.3074C47.8971 69.276 47.9451 69.2237 47.971 69.1599V69.1599Z" fill="#263238"/>
<path d="M63.0837 92.9475C64.0079 93.6387 64.7845 94.2832 65.5921 94.9822C66.3998 95.6811 67.1454 96.3801 67.922 97.1101C69.4363 98.5701 70.8964 100.092 72.2787 101.692C73.6764 103.301 74.9733 104.994 76.1618 106.763C76.4724 107.198 76.7442 107.672 77.0316 108.122C77.3189 108.573 77.6062 109.031 77.8625 109.512C78.1188 109.994 78.3906 110.421 78.6391 110.957L79.0507 111.819L79.3847 112.689C80.1005 114.894 80.4366 117.205 80.3787 119.523C80.3316 121.677 80.1003 123.823 79.6876 125.938C79.2837 128.011 78.7556 130.038 78.1343 132.026C77.5079 134.018 76.7769 135.975 75.9443 137.89L73.133 136.849C73.6145 134.985 74.0727 133.028 74.4144 131.094C74.7939 129.179 75.0713 127.245 75.2454 125.301C75.432 123.417 75.4761 121.522 75.3774 119.632C75.3218 118.735 75.2129 117.843 75.0512 116.96C74.8808 116.145 74.6445 115.345 74.3445 114.568L74.1038 114.032L73.8397 113.543C73.63 113.186 73.3427 112.766 73.0631 112.37C72.7835 111.974 72.5505 111.594 72.2865 111.198C72.0224 110.802 71.7506 110.421 71.4555 110.048C70.3217 108.495 69.0403 107.082 67.7666 105.645C66.493 104.208 65.0951 102.857 63.6739 101.537C62.975 100.869 62.2527 100.217 61.5305 99.5797C60.8083 98.9429 60.0317 98.3061 59.3638 97.7624L63.0837 92.9475Z" fill="#FF8B7B"/>
<path d="M74.0261 134.993L69.7703 138.099L75.2065 140.973C75.2065 140.973 76.8296 138.099 76.3093 135.7L74.0261 134.993Z" fill="#FF8B7B"/>
<path d="M68.4268 143.139L72.8767 144.514L75.2454 140.988L69.7703 138.115L68.4268 143.139Z" fill="#FF8B7B"/>
<path d="M59.6046 87.4646C62.579 87.3326 68.4269 94.6404 68.4269 94.6404L62.3538 103.23C62.3538 103.23 55.5352 97.7935 55.0071 94.0114C54.5645 90.7885 55.8148 87.6199 59.6046 87.4646Z" fill="#EE3025"/>
<path opacity="0.6" d="M59.6046 87.4646C62.579 87.3326 68.4269 94.6404 68.4269 94.6404L62.3538 103.23C62.3538 103.23 55.5352 97.7935 55.0071 94.0114C54.5645 90.7885 55.8148 87.6199 59.6046 87.4646Z" fill="black"/>
<path d="M112.639 233.218H112.546C112.41 233.201 112.28 233.148 112.171 233.065C112.062 232.982 111.977 232.871 111.925 232.744C111.884 232.671 111.862 232.588 111.862 232.504C111.862 232.419 111.884 232.337 111.925 232.263C112.305 231.611 114.441 231.486 114.681 231.486C114.708 231.486 114.735 231.493 114.758 231.507C114.782 231.52 114.801 231.54 114.813 231.564C114.829 231.587 114.837 231.614 114.837 231.642C114.837 231.669 114.829 231.696 114.813 231.719C114.293 232.294 113.369 233.218 112.639 233.218ZM114.348 231.797C113.493 231.859 112.359 232.061 112.165 232.403C112.144 232.434 112.133 232.47 112.133 232.508C112.133 232.545 112.144 232.581 112.165 232.612C112.198 232.697 112.253 232.772 112.324 232.829C112.394 232.887 112.479 232.924 112.569 232.939C112.981 232.985 113.633 232.558 114.348 231.797V231.797Z" fill="#EE3025"/>
<path d="M114.534 231.781C113.819 231.781 112.414 231.385 112.15 230.811C112.108 230.709 112.1 230.596 112.128 230.489C112.156 230.383 112.218 230.288 112.305 230.22C112.386 230.148 112.48 230.093 112.583 230.06C112.686 230.027 112.795 230.015 112.903 230.026C113.749 230.119 114.751 231.494 114.79 231.579C114.803 231.6 114.81 231.625 114.81 231.649C114.81 231.674 114.803 231.698 114.79 231.719C114.779 231.74 114.764 231.758 114.745 231.771C114.726 231.785 114.704 231.793 114.681 231.797L114.534 231.781ZM112.81 230.306C112.694 230.305 112.582 230.35 112.499 230.43C112.367 230.547 112.383 230.64 112.406 230.702C112.577 231.075 113.68 231.478 114.402 231.478C114.045 231.036 113.377 230.337 112.849 230.282L112.81 230.306Z" fill="#EE3025"/>
<path d="M73.9175 246.195C73.4392 246.23 72.9619 246.116 72.5507 245.869C72.4441 245.791 72.3565 245.689 72.2947 245.572C72.2328 245.455 72.1982 245.326 72.1934 245.193C72.1871 245.12 72.2003 245.046 72.2316 244.979C72.263 244.912 72.3114 244.855 72.3721 244.813C73.0089 244.386 75.3931 245.465 75.8668 245.69C75.8932 245.702 75.9152 245.722 75.9292 245.747C75.9432 245.772 75.9486 245.802 75.9445 245.83C75.9419 245.86 75.9299 245.888 75.9104 245.91C75.8909 245.932 75.8647 245.948 75.8357 245.954C75.206 246.099 74.5634 246.179 73.9175 246.195V246.195ZM72.807 244.984C72.7099 244.979 72.6132 245 72.5274 245.046C72.5073 245.061 72.4916 245.081 72.4821 245.104C72.4725 245.128 72.4694 245.153 72.473 245.178C72.476 245.269 72.5 245.359 72.5431 245.44C72.5861 245.52 72.6472 245.59 72.7215 245.644C73.1331 245.954 74.1039 246.001 75.3542 245.768C74.5514 245.375 73.6919 245.11 72.807 244.984V244.984Z" fill="#EE3025"/>
<path d="M75.8047 245.954H75.7581C74.9815 245.628 73.3661 244.347 73.4283 243.687C73.4283 243.547 73.5447 243.36 73.902 243.322C75.2999 243.151 75.8901 245.651 75.9134 245.791C75.9186 245.817 75.917 245.843 75.9088 245.867C75.9006 245.892 75.8861 245.914 75.8668 245.931C75.8486 245.944 75.8271 245.952 75.8047 245.954ZM74.0884 243.586H73.9952C73.8476 243.586 73.77 243.648 73.7544 243.718C73.7078 244.098 74.8106 245.116 75.6183 245.558C75.4086 244.945 74.9038 243.586 74.0884 243.586Z" fill="#EE3025"/>
<path d="M41.4009 72.7012L42.4027 72.0566C42.4027 72.0566 42.0998 73.0817 41.4009 72.7012Z" fill="#263238"/>
<path d="M187.962 15.9156H75.098C73.8921 15.9074 72.6974 16.1462 71.5874 16.6174C70.4774 17.0886 69.4757 17.7822 68.644 18.6554C67.8123 19.5285 67.1683 20.5628 66.7516 21.6944C66.335 22.8259 66.1545 24.0309 66.2213 25.2349L76.8065 244.68C76.9573 247.18 78.0484 249.531 79.8606 251.259C81.6728 252.988 84.0719 253.967 86.5762 254H199.44C200.646 254.008 201.84 253.769 202.95 253.298C204.059 252.827 205.061 252.133 205.892 251.26C206.723 250.386 207.366 249.352 207.782 248.22C208.198 247.089 208.377 245.884 208.309 244.68L197.732 25.2349C197.581 22.735 196.49 20.3847 194.678 18.656C192.866 16.9273 190.466 15.9483 187.962 15.9156V15.9156Z" fill="black"/>
<path d="M192.132 15.9157H79.2371C78.0316 15.9075 76.8372 16.1463 75.7276 16.6176C74.618 17.0889 73.6168 17.7826 72.7857 18.6559C71.9546 19.5291 71.3113 20.5635 70.8956 21.6951C70.4798 22.8266 70.3003 24.0314 70.3683 25.235L80.9456 244.681C81.0964 247.181 82.1875 249.531 83.9997 251.259C85.8119 252.988 88.2111 253.967 90.7153 254H203.579C204.785 254.008 205.979 253.769 207.089 253.298C208.199 252.827 209.2 252.133 210.031 251.26C210.862 250.386 211.505 249.352 211.921 248.221C212.337 247.089 212.516 245.884 212.448 244.681L201.871 25.235C201.721 22.7404 200.634 20.3944 198.828 18.6666C197.023 16.9387 194.631 15.9562 192.132 15.9157Z" fill="#263238"/>
<path d="M90.397 247.787C89.5656 247.766 88.7719 247.436 88.1703 246.862C87.5688 246.288 87.2026 245.51 87.143 244.681L76.5812 25.2351C76.5623 24.8346 76.6248 24.4343 76.7649 24.0586C76.905 23.6829 77.1198 23.3396 77.3964 23.0492C77.6729 22.7589 78.0055 22.5276 78.3739 22.3694C78.7424 22.2112 79.1391 22.1293 79.54 22.1287H192.404C193.237 22.1462 194.032 22.4748 194.635 23.0497C195.237 23.6247 195.602 24.4043 195.658 25.2351L206.236 244.681C206.254 245.081 206.192 245.48 206.053 245.855C205.913 246.231 205.699 246.574 205.423 246.864C205.147 247.154 204.816 247.385 204.448 247.544C204.081 247.703 203.685 247.785 203.284 247.787H90.397Z" fill="#EE3025"/>
<path opacity="0.1" d="M90.3428 246.234C89.9278 246.22 89.5323 246.054 89.2316 245.768C88.9309 245.481 88.746 245.094 88.7119 244.681L78.1345 25.235C78.1273 25.0356 78.1599 24.8368 78.2305 24.6501C78.3011 24.4635 78.4083 24.2928 78.5457 24.1482C78.6832 24.0035 78.8481 23.8877 79.0309 23.8077C79.2136 23.7276 79.4106 23.6848 79.6101 23.6818H192.474C192.89 23.694 193.286 23.8593 193.587 24.146C193.888 24.4327 194.073 24.8206 194.105 25.235L204.682 244.681C204.69 244.88 204.657 245.079 204.587 245.266C204.516 245.452 204.409 245.623 204.271 245.767C204.134 245.912 203.969 246.028 203.786 246.108C203.603 246.188 203.406 246.231 203.207 246.234H90.3428Z" fill="black"/>
<g opacity="0.3">
<path d="M124.405 233.622H102.046C101.432 233.615 100.844 233.375 100.4 232.952C99.9561 232.528 99.6896 231.951 99.6542 231.339L98.0233 197.393C98.003 197.093 98.0448 196.792 98.1464 196.509C98.2479 196.226 98.4068 195.967 98.6131 195.748C98.8195 195.529 99.0689 195.356 99.3456 195.238C99.6223 195.12 99.9204 195.061 100.221 195.063H122.618C123.231 195.068 123.818 195.306 124.261 195.729C124.704 196.152 124.969 196.727 125.003 197.339L126.61 231.292C126.629 231.592 126.586 231.894 126.484 232.177C126.382 232.46 126.222 232.719 126.015 232.938C125.808 233.156 125.558 233.33 125.281 233.448C125.004 233.565 124.706 233.625 124.405 233.622V233.622ZM100.19 195.855C99.9963 195.854 99.8043 195.892 99.6255 195.967C99.4467 196.042 99.2848 196.152 99.1494 196.29C99.0174 196.433 98.9151 196.601 98.8485 196.783C98.7818 196.966 98.7521 197.16 98.7611 197.354L100.4 231.292C100.421 231.708 100.6 232.099 100.9 232.388C101.2 232.676 101.599 232.84 102.015 232.845H124.405C124.599 232.847 124.792 232.808 124.971 232.732C125.151 232.656 125.312 232.543 125.446 232.402C125.58 232.261 125.684 232.094 125.75 231.911C125.817 231.728 125.845 231.533 125.834 231.339L124.195 197.393C124.175 196.978 123.998 196.586 123.699 196.298C123.4 196.009 123.003 195.845 122.587 195.84L100.19 195.855Z" fill="#FAFAFA"/>
<path d="M122.292 203.738H101.269C101.166 203.738 101.068 203.697 100.995 203.624C100.922 203.551 100.881 203.453 100.881 203.35C100.881 203.247 100.922 203.148 100.995 203.075C101.068 203.002 101.166 202.961 101.269 202.961H122.315C122.418 202.961 122.517 203.002 122.59 203.075C122.663 203.148 122.704 203.247 122.704 203.35C122.704 203.453 122.663 203.551 122.59 203.624C122.517 203.697 122.418 203.738 122.315 203.738H122.292Z" fill="#FAFAFA"/>
<path d="M122.51 208.126H101.456C101.354 208.124 101.256 208.082 101.184 208.01C101.111 207.937 101.07 207.84 101.068 207.737C101.068 207.634 101.109 207.536 101.181 207.463C101.254 207.39 101.353 207.349 101.456 207.349H122.51C122.613 207.349 122.711 207.39 122.784 207.463C122.857 207.536 122.898 207.634 122.898 207.737C122.896 207.84 122.854 207.937 122.782 208.01C122.71 208.082 122.612 208.124 122.51 208.126V208.126Z" fill="#FAFAFA"/>
<path d="M122.719 212.514H101.665C101.563 212.512 101.465 212.47 101.393 212.398C101.321 212.325 101.279 212.228 101.277 212.125C101.277 212.022 101.318 211.924 101.391 211.851C101.464 211.778 101.562 211.737 101.665 211.737H122.719C122.822 211.737 122.921 211.778 122.994 211.851C123.067 211.924 123.107 212.022 123.107 212.125C123.107 212.228 123.067 212.327 122.994 212.4C122.921 212.473 122.822 212.514 122.719 212.514Z" fill="#FAFAFA"/>
<path d="M122.929 216.901H101.883C101.78 216.901 101.681 216.86 101.608 216.788C101.536 216.715 101.495 216.616 101.495 216.513C101.495 216.41 101.536 216.311 101.608 216.239C101.681 216.166 101.78 216.125 101.883 216.125H122.929C123.032 216.125 123.131 216.166 123.204 216.239C123.276 216.311 123.317 216.41 123.317 216.513C123.317 216.616 123.276 216.715 123.204 216.788C123.131 216.86 123.032 216.901 122.929 216.901Z" fill="#FAFAFA"/>
<path d="M123.139 221.289H102.093C101.99 221.289 101.891 221.248 101.818 221.176C101.745 221.103 101.704 221.004 101.704 220.901C101.704 220.798 101.745 220.699 101.818 220.626C101.891 220.554 101.99 220.513 102.093 220.513H123.139C123.242 220.513 123.34 220.554 123.413 220.626C123.486 220.699 123.527 220.798 123.527 220.901C123.527 221.004 123.486 221.103 123.413 221.176C123.34 221.248 123.242 221.289 123.139 221.289Z" fill="#FAFAFA"/>
<path d="M119.038 225.677H102.302C102.199 225.677 102.101 225.636 102.028 225.563C101.955 225.491 101.914 225.392 101.914 225.289C101.914 225.186 101.955 225.087 102.028 225.014C102.101 224.941 102.199 224.9 102.302 224.9H119.038C119.141 224.9 119.24 224.941 119.313 225.014C119.386 225.087 119.427 225.186 119.427 225.289C119.425 225.391 119.383 225.489 119.311 225.561C119.238 225.634 119.141 225.675 119.038 225.677V225.677Z" fill="#FAFAFA"/>
</g>
<path opacity="0.2" d="M179.085 44.5648H102.201L109.696 199.971C110.061 206.338 112.831 212.328 117.444 216.731C122.057 221.134 128.17 223.621 134.547 223.689H211.431L203.945 68.2823C203.582 61.9131 200.813 55.9197 196.197 51.5159C191.582 47.1122 185.465 44.6274 179.085 44.5648V44.5648Z" fill="black"/>
<path d="M197.918 44.5648H102.225C108.602 44.6312 114.716 47.1175 119.33 51.5206C123.943 55.9238 126.712 61.9151 127.076 68.2823L133.188 194.791C133.554 201.158 136.323 207.148 140.936 211.551C145.55 215.954 151.663 218.441 158.039 218.509H206.29C209.362 218.541 212.408 217.941 215.238 216.745C218.068 215.55 220.622 213.785 222.741 211.561C224.86 209.336 226.498 206.699 227.555 203.814C228.611 200.93 229.063 197.858 228.881 194.791L222.777 68.2823C222.415 61.9131 219.646 55.9197 215.03 51.5159C210.414 47.1122 204.297 44.6274 197.918 44.5648Z" fill="#FAFAFA"/>
<path d="M180.623 194.791C180.805 197.857 180.355 200.926 179.301 203.81C178.246 206.694 176.61 209.33 174.493 211.554C172.376 213.779 169.825 215.544 166.997 216.74C164.169 217.937 161.125 218.539 158.055 218.509H253.741C256.811 218.539 259.855 217.937 262.684 216.741C265.512 215.544 268.064 213.779 270.181 211.555C272.298 209.33 273.936 206.694 274.991 203.811C276.047 200.927 276.498 197.857 276.317 194.791H180.623Z" fill="#E6E6E6"/>
<path d="M211.392 123.087H143.765C143.291 123.082 142.837 122.897 142.494 122.57C142.151 122.243 141.945 121.798 141.917 121.324V121.324C141.904 121.097 141.938 120.869 142.017 120.655C142.096 120.441 142.217 120.245 142.375 120.08C142.532 119.915 142.721 119.784 142.931 119.695C143.141 119.605 143.367 119.56 143.595 119.562H211.221C211.701 119.559 212.163 119.74 212.513 120.068C212.863 120.396 213.073 120.846 213.101 121.324V121.324C213.114 121.555 213.079 121.785 212.998 122.001C212.918 122.217 212.793 122.415 212.633 122.58C212.472 122.746 212.279 122.876 212.066 122.964C211.852 123.051 211.623 123.093 211.392 123.087V123.087Z" fill="#EE3025"/>
<path d="M211.92 134.092H144.294C143.819 134.087 143.365 133.902 143.022 133.575C142.679 133.247 142.473 132.802 142.445 132.329V132.329C142.433 132.101 142.467 131.873 142.545 131.659C142.624 131.446 142.746 131.25 142.903 131.085C143.06 130.92 143.249 130.788 143.459 130.699C143.669 130.61 143.895 130.565 144.123 130.566H211.757C212.23 130.573 212.683 130.759 213.024 131.086C213.365 131.413 213.57 131.857 213.598 132.329V132.329C213.611 132.557 213.577 132.784 213.498 132.998C213.419 133.212 213.298 133.408 213.14 133.573C212.983 133.738 212.794 133.87 212.584 133.959C212.374 134.048 212.148 134.093 211.92 134.092V134.092Z" fill="#EE3025"/>
<path d="M212.456 145.089H144.822C144.348 145.083 143.893 144.899 143.55 144.571C143.207 144.244 143.001 143.799 142.973 143.326V143.326C142.961 143.098 142.995 142.87 143.073 142.656C143.152 142.442 143.274 142.247 143.431 142.081C143.588 141.916 143.777 141.785 143.987 141.696C144.197 141.607 144.423 141.561 144.651 141.563H212.324C212.798 141.568 213.253 141.753 213.596 142.08C213.939 142.407 214.145 142.852 214.173 143.326V143.326C214.186 143.557 214.15 143.788 214.069 144.004C213.988 144.221 213.863 144.419 213.702 144.584C213.54 144.75 213.346 144.881 213.132 144.967C212.918 145.054 212.687 145.095 212.456 145.089V145.089Z" fill="#EE3025"/>
<path d="M212.984 156.109H145.358C144.884 156.102 144.431 155.916 144.088 155.59C143.745 155.263 143.538 154.818 143.509 154.346V154.346C143.496 154.118 143.53 153.89 143.609 153.676C143.688 153.462 143.81 153.267 143.967 153.102C144.124 152.936 144.313 152.805 144.523 152.716C144.733 152.627 144.959 152.582 145.187 152.583H212.814C213.288 152.588 213.742 152.773 214.085 153.1C214.428 153.427 214.634 153.873 214.662 154.346V154.346C214.675 154.573 214.641 154.801 214.562 155.015C214.483 155.229 214.362 155.425 214.204 155.59C214.047 155.755 213.858 155.886 213.648 155.976C213.438 156.065 213.212 156.11 212.984 156.109V156.109Z" fill="#EE3025"/>
<path d="M186.626 167.113H145.886C145.412 167.108 144.957 166.923 144.614 166.596C144.271 166.269 144.065 165.824 144.037 165.35V165.35C144.025 165.123 144.059 164.895 144.137 164.681C144.216 164.467 144.338 164.271 144.495 164.106C144.652 163.941 144.841 163.81 145.051 163.72C145.261 163.631 145.487 163.586 145.715 163.587H186.455C186.93 163.592 187.384 163.777 187.727 164.105C188.07 164.432 188.276 164.877 188.304 165.35V165.35C188.317 165.578 188.283 165.806 188.204 166.02C188.125 166.234 188.003 166.429 187.846 166.594C187.689 166.76 187.5 166.891 187.29 166.98C187.08 167.069 186.854 167.115 186.626 167.113V167.113Z" fill="#EE3025"/>
<path d="M191.325 100.277C199.328 92.0791 198.841 78.6256 190.238 70.2276C181.635 61.8295 168.174 61.6671 160.172 69.8647C152.169 78.0624 152.656 91.5159 161.258 99.9139C169.861 108.312 183.322 108.474 191.325 100.277Z" fill="#EE3025"/>
<path d="M193.282 85.057C193.428 87.943 192.838 90.8188 191.565 93.4133C190.186 96.1953 188.05 98.5322 185.403 100.156C182.756 101.779 179.705 102.624 176.6 102.593C173.388 102.569 170.237 101.71 167.457 100.1C164.677 98.4911 162.363 96.1867 160.742 93.4133C159.23 90.8764 158.363 88.007 158.218 85.057C158.084 82.7906 158.417 80.5209 159.197 78.3887C159.977 76.2566 161.187 74.3076 162.753 72.6631C164.318 71.0185 166.204 69.7133 168.295 68.8288C170.386 67.9442 172.637 67.4992 174.907 67.5213C179.619 67.5798 184.135 69.4212 187.544 72.6748C190.953 75.9284 193.003 80.3526 193.282 85.057V85.057Z" fill="white"/>
<path opacity="0.4" d="M191.566 93.4132C190.186 96.1952 188.051 98.532 185.404 100.156C182.757 101.779 179.706 102.624 176.6 102.593C173.388 102.568 170.237 101.71 167.457 100.1C164.677 98.491 162.363 96.1866 160.742 93.4132C165.212 90.3463 170.512 88.7203 175.933 88.7536C181.484 88.7639 186.914 90.3824 191.566 93.4132V93.4132Z" fill="#EE3025"/>
<path opacity="0.4" d="M181.177 84.6359C184.119 81.622 183.941 76.677 180.78 73.5911C177.619 70.5051 172.671 70.4467 169.729 73.4606C166.787 76.4744 166.965 81.4194 170.126 84.5053C173.287 87.5913 178.235 87.6498 181.177 84.6359Z" fill="#EE3025"/>
<path d="M240.872 248.175H235.172L234.597 234.957H240.305L240.872 248.175Z" fill="#B55B52"/>
<path opacity="0.2" d="M234.605 234.965L234.892 241.776H240.6L240.305 234.965H234.605Z" fill="black"/>
<path d="M289.433 232.69L284.013 234.46L277.186 222.788L282.615 221.017L289.433 232.69Z" fill="#B55B52"/>
<path opacity="0.2" d="M282.615 221.017L277.186 222.788L280.712 228.807L286.133 227.036L282.615 221.017Z" fill="black"/>
<path d="M260.163 57.2699C260.87 58.1319 261.468 58.9008 262.081 59.7473C262.695 60.5938 263.277 61.4014 263.86 62.2402C265.009 63.9254 266.112 65.6495 267.145 67.4279C269.294 71.036 271.046 74.8663 272.371 78.8518L272.503 79.2401L272.565 79.442L272.651 79.7604L272.806 80.3972L272.891 80.9797C272.983 81.6772 273.012 82.3816 272.977 83.0843C272.905 84.2692 272.733 85.446 272.464 86.6023C271.973 88.674 271.321 90.7045 270.515 92.6754C268.979 96.4535 267.119 100.091 264.955 103.548L261.071 101.692C262.236 98.0495 263.401 94.3218 264.256 90.695C264.7 88.9467 265.038 87.1727 265.265 85.383C265.361 84.6104 265.389 83.8308 265.351 83.0532C265.339 82.7761 265.303 82.5006 265.242 82.23L265.203 82.0902C265.189 82.0652 265.176 82.0392 265.164 82.0126V82.0126L265.102 81.865L264.978 81.5621L264.458 80.3429L263.875 79.1314C263.487 78.3548 263.06 77.516 262.632 76.7083C261.747 75.1085 260.792 73.5165 259.798 71.9322C258.804 70.3479 257.748 68.8258 256.691 67.2726C255.635 65.7194 254.478 64.1662 253.43 62.7605L260.163 57.2699Z" fill="#B55B52"/>
<path d="M261.429 100.729L259.2 105.66H265.576C265.576 105.66 266.593 101.917 264.279 100.402L261.429 100.729Z" fill="#B55B52"/>
<path d="M259.946 111.205L265.863 110.063L265.576 105.66H259.2L259.946 111.205Z" fill="#B55B52"/>
<path d="M231.91 32.24C231.91 32.7059 231.669 33.0787 231.366 33.0787C231.063 33.0787 230.823 32.7059 230.823 32.24C230.823 31.774 231.071 31.409 231.366 31.409C231.661 31.409 231.91 31.7818 231.91 32.24Z" fill="#263238"/>
<path d="M231.739 33.0786C231.192 34.4837 230.452 35.8062 229.542 37.0082C229.856 37.2333 230.215 37.3874 230.594 37.4598C230.974 37.5322 231.364 37.5212 231.739 37.4275V33.0786Z" fill="#A02724"/>
<path d="M233.541 29.6926C233.485 29.6933 233.43 29.6741 233.386 29.6383C233.115 29.4347 232.801 29.2972 232.468 29.2365C232.135 29.1758 231.792 29.1937 231.468 29.2888C231.403 29.3065 231.333 29.2995 231.273 29.269C231.213 29.2386 231.167 29.187 231.142 29.1241C231.118 29.0613 231.118 28.9917 231.142 28.9289C231.167 28.866 231.213 28.8144 231.273 28.784C231.683 28.6541 232.117 28.6244 232.54 28.6973C232.963 28.7703 233.362 28.9439 233.704 29.2034C233.761 29.2467 233.8 29.3104 233.811 29.3812C233.823 29.4521 233.807 29.5246 233.766 29.5839C233.739 29.6178 233.705 29.6452 233.666 29.6641C233.627 29.6829 233.584 29.6927 233.541 29.6926V29.6926Z" fill="#263238"/>
<path d="M246.767 37.5441C245.943 41.7223 245.128 49.3718 248.048 52.1521C248.048 52.1521 246.906 56.3846 239.156 56.3846C230.613 56.3846 235.079 52.1521 235.079 52.1521C239.738 51.0415 239.614 47.5934 238.799 44.3472L246.767 37.5441Z" fill="#B55B52"/>
<path d="M249.166 53.6042C249.78 52.2685 250.456 50.7308 249.058 50.2493C247.504 49.7212 239.148 49.1853 236.251 50.1794C235.87 50.2849 235.514 50.4651 235.204 50.7096C234.893 50.954 234.634 51.2578 234.442 51.6032C234.25 51.9486 234.128 52.3288 234.084 52.7217C234.04 53.1145 234.075 53.5122 234.186 53.8916L249.166 53.6042Z" fill="#263238"/>
<path d="M282.84 235.819C282.421 236.223 281.947 236.55 281.59 236.495C281.477 236.472 281.374 236.416 281.295 236.332C281.215 236.249 281.164 236.143 281.147 236.029C281.123 235.941 281.119 235.849 281.135 235.759C281.152 235.669 281.187 235.583 281.24 235.509C281.706 234.787 283.57 234.476 283.671 234.468C283.696 234.465 283.721 234.468 283.744 234.477C283.768 234.487 283.788 234.502 283.803 234.523C283.818 234.544 283.826 234.57 283.826 234.596C283.826 234.623 283.818 234.648 283.803 234.67C283.523 235.086 283.2 235.471 282.84 235.819ZM281.574 235.524C281.534 235.562 281.497 235.603 281.465 235.649C281.434 235.693 281.413 235.744 281.404 235.798C281.394 235.852 281.397 235.907 281.411 235.959C281.473 236.2 281.59 236.223 281.628 236.223C282.025 236.285 282.871 235.447 283.391 234.794C282.739 234.901 282.119 235.15 281.574 235.524Z" fill="#EE3025"/>
<path d="M283.772 234.693L283.71 234.732C283.065 234.903 281.38 234.794 281.023 234.251C280.969 234.164 280.947 234.062 280.958 233.96C280.969 233.859 281.014 233.764 281.085 233.691C281.152 233.613 281.233 233.548 281.325 233.502C281.417 233.455 281.518 233.427 281.621 233.42C282.475 233.357 283.71 234.452 283.764 234.499C283.783 234.515 283.797 234.536 283.804 234.559C283.81 234.583 283.81 234.608 283.803 234.631C283.801 234.655 283.79 234.677 283.772 234.693V234.693ZM281.341 233.823L281.295 233.87C281.186 234.002 281.232 234.072 281.248 234.103C281.458 234.421 282.638 234.6 283.368 234.515C282.886 234.078 282.286 233.792 281.644 233.691C281.536 233.7 281.434 233.747 281.357 233.823H281.341Z" fill="#EE3025"/>
<path d="M232.873 248.463C232.143 248.463 231.437 248.362 231.204 248.035C231.14 247.95 231.106 247.847 231.106 247.74C231.106 247.634 231.14 247.531 231.204 247.445C231.249 247.366 231.311 247.297 231.384 247.242C231.458 247.187 231.542 247.148 231.631 247.127C232.578 246.871 234.574 248.004 234.659 248.059C234.684 248.072 234.703 248.093 234.715 248.118C234.726 248.143 234.728 248.172 234.722 248.198C234.718 248.225 234.706 248.249 234.688 248.268C234.67 248.288 234.646 248.301 234.621 248.307C234.044 248.408 233.459 248.46 232.873 248.463V248.463ZM231.972 247.36C231.885 247.347 231.796 247.347 231.708 247.36C231.654 247.371 231.602 247.393 231.556 247.425C231.511 247.457 231.473 247.498 231.444 247.546C231.351 247.717 231.382 247.802 231.444 247.849C231.708 248.214 233.153 248.222 234.209 248.074C233.517 247.693 232.757 247.45 231.972 247.36V247.36Z" fill="#EE3025"/>
<path d="M234.597 248.307H234.543C233.859 247.997 232.492 246.754 232.593 246.117C232.593 245.962 232.725 245.775 233.098 245.737C233.237 245.721 233.377 245.734 233.51 245.774C233.644 245.814 233.768 245.88 233.875 245.97C234.597 246.568 234.752 248.105 234.76 248.167C234.76 248.191 234.754 248.215 234.743 248.236C234.732 248.258 234.717 248.277 234.698 248.292C234.683 248.301 234.666 248.307 234.649 248.31C234.632 248.312 234.614 248.311 234.597 248.307V248.307ZM233.207 245.977H233.129C232.881 245.977 232.865 246.094 232.865 246.125C232.803 246.513 233.727 247.484 234.418 247.903C234.351 247.251 234.079 246.637 233.642 246.148C233.518 246.05 233.365 245.995 233.207 245.993V245.977Z" fill="#EE3025"/>
<path d="M283.539 233.831L288.198 229.397C288.279 229.317 288.386 229.268 288.499 229.258C288.613 229.248 288.726 229.278 288.82 229.342L293.138 232.231C293.242 232.302 293.329 232.395 293.392 232.504C293.455 232.613 293.493 232.735 293.502 232.861C293.511 232.987 293.491 233.113 293.444 233.23C293.397 233.347 293.324 233.452 293.231 233.536C291.592 235.089 290.715 235.718 288.68 237.66C287.422 238.864 283.679 242.941 281.947 244.603C280.215 246.265 278.351 244.758 278.91 243.927C281.426 240.192 282.995 236.612 283.135 234.724C283.16 234.388 283.303 234.072 283.539 233.831V233.831Z" fill="#263238"/>
<path d="M235.203 247.515H241.416C241.528 247.514 241.638 247.553 241.726 247.623C241.813 247.694 241.874 247.793 241.897 247.903L243.023 252.975C243.052 253.096 243.052 253.223 243.024 253.345C242.996 253.467 242.94 253.581 242.862 253.678C242.783 253.776 242.683 253.854 242.57 253.907C242.457 253.96 242.333 253.986 242.208 253.984C239.956 253.984 236.709 253.821 233.883 253.821C230.582 253.821 227.732 254 223.857 254C221.527 254 220.867 251.631 221.845 251.414C226.303 250.443 229.953 250.334 233.805 247.958C234.22 247.683 234.705 247.529 235.203 247.515V247.515Z" fill="#263238"/>
<path d="M227.08 65.098C224.812 68.4374 222.474 71.5594 219.958 74.6425C217.432 77.7633 214.733 80.7398 211.874 83.5579L210.771 84.6297L210.491 84.8937L210.289 85.0801L209.994 85.2898C209.628 85.5847 209.236 85.8447 208.822 86.0664C207.511 86.758 206.068 87.163 204.589 87.2546C202.332 87.3881 200.068 87.1999 197.864 86.6954C193.87 85.8146 189.998 84.4534 186.331 82.6415L187.76 78.6032C191.396 79.3302 195.074 79.8333 198.772 80.1098C200.398 80.2382 202.032 80.1704 203.642 79.9079C204.104 79.8388 204.545 79.6662 204.931 79.4031C204.97 79.4031 204.931 79.3565 204.931 79.3565L204.993 79.2944L205.218 79.0381L206.142 78.0285C208.565 75.2638 210.918 72.3127 213.202 69.2995C215.485 66.2862 217.776 63.1953 219.958 60.1821L227.08 65.098Z" fill="#B55B52"/>
<path d="M258.268 53.4491C263.611 54.6761 269.746 69.253 269.746 69.253L259.006 76.6152C256.338 72.782 253.973 68.747 251.931 64.5468C248.747 57.8757 252.801 52.191 258.268 53.4491Z" fill="#EE3025"/>
<path opacity="0.3" d="M254.432 62.7683L259.511 76.289L259.006 76.6385C259.006 76.6385 256.808 73.532 254.432 69.3927V62.7683Z" fill="black"/>
<path d="M226.303 53.7362C226.303 53.7362 220.23 60.5937 225.969 103.051H256.482C256.691 98.3911 253.748 75.5123 258.268 53.4411C254.893 52.792 251.479 52.3614 248.048 52.152C243.728 51.9033 239.398 51.9033 235.078 52.152C232.116 52.4504 229.182 52.9801 226.303 53.7362V53.7362Z" fill="#EE3025"/>
<path opacity="0.3" d="M229.689 66.0144C228.895 70.8324 226.813 75.3459 223.662 79.0769C223.538 76.3433 223.492 73.8892 223.499 71.6914L229.689 66.0144Z" fill="black"/>
<path d="M232.322 58.365C233.098 63.7624 222.428 77.5627 222.428 77.5627L211.734 70.2005C211.734 70.2005 214.701 62.5975 219.694 57.6117C225.402 51.8959 231.506 52.4861 232.322 58.365Z" fill="#EE3025"/>
<path d="M188.498 79.0769L184.312 74.7512L179.846 80.5058C179.846 80.5058 183.248 83.7909 187.294 82.8357L188.498 79.0769Z" fill="#B55B52"/>
<path d="M178.565 72.3437L176.647 78.3857L179.846 80.4825L184.312 74.7279L178.565 72.3437Z" fill="#B55B52"/>
<path d="M247.271 31.2691C246.922 36.915 247.007 40.2467 244.165 43.1434C239.87 47.5079 232.896 44.9218 231.553 39.2604C230.333 34.1814 231.11 25.794 236.64 23.5496C237.857 23.0492 239.183 22.8686 240.491 23.025C241.798 23.1814 243.044 23.6696 244.109 24.4432C245.175 25.2168 246.024 26.2502 246.578 27.4449C247.131 28.6396 247.37 29.9561 247.271 31.2691V31.2691Z" fill="#B55B52"/>
<path d="M252.187 19.4724C253.927 21.0723 253.189 22.8584 252.28 23.1924C255.1 23.7748 255.511 26.0192 254.028 30.7565C252.614 35.2919 249.19 41.3727 244.91 41.7455C238.48 42.3047 236.601 35.6025 236.554 28.9548C232.92 29.18 234.488 25.9571 230.023 26.7026C226.14 27.3472 227.6 24.3185 224.299 22.9982C220.471 21.445 221.239 15.5816 224.812 17.2669C224.812 17.2669 223.158 18.3541 225.084 19.3792C227.01 20.4044 226.823 18.0357 230.636 17.7484C234.45 17.461 234.892 20.7228 239.35 18.758C244.941 16.2884 248.615 16.1719 252.187 19.4724Z" fill="#263238"/>
<path d="M250.044 23.1612C250.297 22.7545 250.675 22.4405 251.122 22.2656C251.568 22.0907 252.059 22.0644 252.521 22.1905C254.268 22.5632 254.408 23.3321 255.503 23.2311C256.598 23.1301 256.202 24.2951 256.202 24.2951C256.202 24.2951 255.907 23.4175 254.587 23.9068C253.267 24.396 252.405 23.2 251.838 23.7359C251.271 24.2718 250.044 23.1612 250.044 23.1612Z" fill="#263238"/>
<path d="M239.599 32.8069C239.35 34.1914 238.648 35.4538 237.603 36.3948C236.22 37.6218 235.024 36.6355 234.978 34.9581C234.978 33.4437 235.622 30.9741 237.214 30.3839C238.806 29.7936 239.886 31.1294 239.599 32.8069Z" fill="#B55B52"/>
<path d="M236.787 103.051C236.787 103.051 243.264 146.642 246.821 162.951C250.704 180.812 277.769 228.341 277.769 228.341L287.709 225.11C287.709 225.11 266.158 182.288 263.937 164.574C261.522 145.353 256.482 103.02 256.482 103.02L236.787 103.051Z" fill="#263238"/>
<path d="M274.988 225.234C274.949 225.234 277.264 228.714 277.264 228.714L288.431 225.079L287.119 221.74L274.988 225.234Z" fill="#EE3025"/>
<path opacity="0.3" d="M240.88 118.583C248.366 120.051 247.574 147.97 246.673 162.329C244.514 152.179 241.354 132.647 239.195 118.785C239.717 118.528 240.311 118.456 240.88 118.583V118.583Z" fill="black"/>
<path d="M225.969 103.051C225.969 103.051 225.192 145.71 225.798 163.106C226.443 181.201 232.788 240.456 232.788 240.456H242.456C242.456 240.456 242.806 182.257 243.233 164.488C243.699 145.073 246.037 103.051 246.037 103.051H225.969Z" fill="#263238"/>
<path d="M230.908 236.604C230.862 236.604 231.452 240.619 231.452 240.619H243.21L243.528 237.039L230.908 236.604Z" fill="#EE3025"/>
</svg>
